<svg width="813" height="570" viewBox="0 0 813 570" fill="none" xmlns="http://www.w3.org/2000/svg">
<circle cx="394.074" cy="553.58" r="15.9198" fill="#807E7E" stroke="white"/>
<circle cx="394.074" cy="483.21" r="16.4198" fill="#19D2EB"/>
<circle cx="584.074" cy="129.012" r="16.4198" fill="#19D2EB"/>
<circle cx="584.074" cy="182.963" r="16.4198" fill="#F9D51A"/>
<circle cx="584.074" cy="16.4198" r="16.4198" fill="#DEE3E3"/>
<circle cx="469.136" cy="480.864" r="16.4198" fill="#EF1313"/>
<circle cx="21.1111" cy="480.864" r="16.4198" fill="#EF1313"/>
<circle cx="584.074" cy="72.716" r="16.4198" fill="#EF1313"/>
<path d="M636.709 20.7588L640.366 10.2031H642.211L637.465 23H635.971L631.234 10.2031H633.071L636.709 20.7588ZM649.146 23C649.052 22.8125 648.976 22.4785 648.917 21.998C648.161 22.7832 647.259 23.1758 646.21 23.1758C645.273 23.1758 644.502 22.9121 643.899 22.3848C643.301 21.8516 643.002 21.1777 643.002 20.3633C643.002 19.373 643.377 18.6055 644.127 18.0605C644.883 17.5098 645.944 17.2344 647.309 17.2344H648.891V16.4873C648.891 15.9189 648.721 15.4678 648.381 15.1338C648.041 14.7939 647.54 14.624 646.878 14.624C646.298 14.624 645.812 14.7705 645.419 15.0635C645.027 15.3564 644.83 15.7109 644.83 16.127H643.196C643.196 15.6523 643.363 15.1953 643.697 14.7559C644.036 14.3105 644.494 13.959 645.068 13.7012C645.648 13.4434 646.284 13.3145 646.975 13.3145C648.071 13.3145 648.929 13.5898 649.55 14.1406C650.171 14.6855 650.494 15.4385 650.517 16.3994V20.7764C650.517 21.6494 650.628 22.3438 650.851 22.8594V23H649.146ZM646.448 21.7607C646.957 21.7607 647.441 21.6289 647.898 21.3652C648.355 21.1016 648.686 20.7588 648.891 20.3369V18.3857H647.617C645.624 18.3857 644.628 18.9688 644.628 20.1348C644.628 20.6445 644.798 21.043 645.138 21.3301C645.478 21.6172 645.914 21.7607 646.448 21.7607ZM654.595 21.6729H660.159V23H652.609V21.8047L657.856 14.835H652.688V13.4902H659.895V14.6416L654.595 21.6729ZM663.762 23H662.136V13.4902H663.762V23ZM662.004 10.9678C662.004 10.7041 662.083 10.4814 662.242 10.2998C662.406 10.1182 662.646 10.0273 662.962 10.0273C663.279 10.0273 663.519 10.1182 663.683 10.2998C663.847 10.4814 663.929 10.7041 663.929 10.9678C663.929 11.2314 663.847 11.4512 663.683 11.627C663.519 11.8027 663.279 11.8906 662.962 11.8906C662.646 11.8906 662.406 11.8027 662.242 11.627C662.083 11.4512 662.004 11.2314 662.004 10.9678ZM665.942 18.1572C665.942 17.2256 666.123 16.3877 666.487 15.6436C666.856 14.8994 667.366 14.3252 668.016 13.9209C668.672 13.5166 669.419 13.3145 670.257 13.3145C671.552 13.3145 672.598 13.7627 673.395 14.6592C674.198 15.5557 674.599 16.748 674.599 18.2363V18.3506C674.599 19.2764 674.42 20.1084 674.063 20.8467C673.711 21.5791 673.204 22.1504 672.542 22.5605C671.886 22.9707 671.13 23.1758 670.275 23.1758C668.986 23.1758 667.94 22.7275 667.137 21.8311C666.34 20.9346 665.942 19.748 665.942 18.2715V18.1572ZM667.577 18.3506C667.577 19.4053 667.82 20.252 668.306 20.8906C668.798 21.5293 669.454 21.8486 670.275 21.8486C671.101 21.8486 671.757 21.5264 672.244 20.8818C672.73 20.2314 672.973 19.3232 672.973 18.1572C672.973 17.1143 672.724 16.2705 672.226 15.626C671.734 14.9756 671.078 14.6504 670.257 14.6504C669.454 14.6504 668.807 14.9697 668.315 15.6084C667.823 16.2471 667.577 17.1611 667.577 18.3506Z" fill="#939292"/>
<path d="M634.653 66.4994L638.836 76.9408L643.02 66.4994H645.208V79.2963H643.521V74.3129L643.679 68.934L639.478 79.2963H638.186L633.994 68.9604L634.161 74.3129V79.2963H632.473V66.4994H634.653ZM647.502 74.4535C647.502 73.5219 647.684 72.684 648.047 71.9398C648.416 71.1957 648.926 70.6215 649.577 70.2172C650.233 69.8129 650.98 69.6107 651.818 69.6107C653.113 69.6107 654.159 70.059 654.955 70.9555C655.758 71.852 656.16 73.0443 656.16 74.5326V74.6469C656.16 75.5727 655.981 76.4047 655.623 77.143C655.272 77.8754 654.765 78.4467 654.103 78.8568C653.447 79.267 652.691 79.4721 651.835 79.4721C650.546 79.4721 649.5 79.0238 648.698 78.1273C647.901 77.2309 647.502 76.0443 647.502 74.5678V74.4535ZM649.137 74.6469C649.137 75.7016 649.38 76.5482 649.867 77.1869C650.359 77.8256 651.015 78.1449 651.835 78.1449C652.661 78.1449 653.318 77.8227 653.804 77.1781C654.29 76.5277 654.534 75.6195 654.534 74.4535C654.534 73.4106 654.285 72.5668 653.786 71.9223C653.294 71.2719 652.638 70.9467 651.818 70.9467C651.015 70.9467 650.368 71.266 649.875 71.9047C649.383 72.5434 649.137 73.4574 649.137 74.6469ZM659.737 69.7865L659.789 70.9818C660.516 70.0678 661.465 69.6107 662.637 69.6107C664.647 69.6107 665.661 70.7445 665.678 73.0121V79.2963H664.052V73.0033C664.046 72.3178 663.888 71.8109 663.578 71.4828C663.273 71.1547 662.795 70.9906 662.145 70.9906C661.618 70.9906 661.155 71.1313 660.756 71.4125C660.358 71.6938 660.047 72.0629 659.825 72.5199V79.2963H658.199V69.7865H659.737ZM673.667 76.7738C673.667 76.3344 673.5 75.9945 673.166 75.7543C672.838 75.5082 672.261 75.2973 671.435 75.1215C670.615 74.9457 669.961 74.7348 669.475 74.4887C668.995 74.2426 668.637 73.9496 668.403 73.6098C668.174 73.2699 668.06 72.8656 668.06 72.3969C668.06 71.6176 668.388 70.9584 669.044 70.4193C669.706 69.8803 670.55 69.6107 671.576 69.6107C672.654 69.6107 673.527 69.8891 674.195 70.4457C674.869 71.0023 675.205 71.7143 675.205 72.5815H673.571C673.571 72.1361 673.38 71.7523 672.999 71.4301C672.624 71.1078 672.15 70.9467 671.576 70.9467C670.984 70.9467 670.521 71.0756 670.187 71.3334C669.853 71.5912 669.686 71.9281 669.686 72.3441C669.686 72.7367 669.841 73.0326 670.152 73.2318C670.462 73.4311 671.022 73.6215 671.83 73.8031C672.645 73.9848 673.304 74.2016 673.808 74.4535C674.312 74.7055 674.684 75.0102 674.924 75.3676C675.17 75.7191 675.293 76.1498 675.293 76.6596C675.293 77.5092 674.953 78.1918 674.274 78.7074C673.594 79.2172 672.712 79.4721 671.628 79.4721C670.867 79.4721 670.193 79.3373 669.607 79.0678C669.021 78.7982 668.561 78.4232 668.227 77.9428C667.899 77.4565 667.735 76.932 667.735 76.3695H669.361C669.39 76.9145 669.607 77.3481 670.011 77.6703C670.421 77.9867 670.96 78.1449 671.628 78.1449C672.244 78.1449 672.736 78.0219 673.105 77.7758C673.48 77.5238 673.667 77.1898 673.667 76.7738ZM679.618 67.4838V69.7865H681.393V71.0434H679.618V76.9408C679.618 77.3217 679.697 77.6088 679.855 77.8022C680.013 77.9897 680.283 78.0834 680.663 78.0834C680.851 78.0834 681.109 78.0482 681.437 77.9779V79.2963C681.009 79.4135 680.593 79.4721 680.189 79.4721C679.462 79.4721 678.914 79.2523 678.545 78.8129C678.176 78.3734 677.992 77.7494 677.992 76.9408V71.0434H676.26V69.7865H677.992V67.4838H679.618ZM687.897 71.2455C687.651 71.2045 687.384 71.184 687.097 71.184C686.031 71.184 685.307 71.6381 684.926 72.5463V79.2963H683.3V69.7865H684.882L684.909 70.8852C685.442 70.0356 686.198 69.6107 687.176 69.6107C687.493 69.6107 687.733 69.6518 687.897 69.7338V71.2455ZM688.793 74.4535C688.793 73.5219 688.975 72.684 689.338 71.9398C689.707 71.1957 690.217 70.6215 690.868 70.2172C691.524 69.8129 692.271 69.6107 693.109 69.6107C694.404 69.6107 695.45 70.059 696.246 70.9555C697.049 71.852 697.451 73.0443 697.451 74.5326V74.6469C697.451 75.5727 697.272 76.4047 696.914 77.143C696.563 77.8754 696.056 78.4467 695.394 78.8568C694.738 79.267 693.982 79.4721 693.126 79.4721C691.837 79.4721 690.791 79.0238 689.989 78.1273C689.192 77.2309 688.793 76.0443 688.793 74.5678V74.4535ZM690.428 74.6469C690.428 75.7016 690.671 76.5482 691.158 77.1869C691.65 77.8256 692.306 78.1449 693.126 78.1449C693.953 78.1449 694.609 77.8227 695.095 77.1781C695.581 76.5277 695.825 75.6195 695.825 74.4535C695.825 73.4106 695.576 72.5668 695.078 71.9223C694.585 71.2719 693.929 70.9467 693.109 70.9467C692.306 70.9467 691.659 71.266 691.166 71.9047C690.674 72.5434 690.428 73.4574 690.428 74.6469Z" fill="#939292"/>
<path d="M639.539 132.253H634.178L632.974 135.593H631.234L636.12 122.796H637.597L642.493 135.593H640.761L639.539 132.253ZM634.688 130.864H639.038L636.859 124.879L634.688 130.864ZM648.557 127.542C648.311 127.501 648.044 127.48 647.757 127.48C646.691 127.48 645.967 127.934 645.586 128.843V135.593H643.96V126.083H645.542L645.569 127.181C646.102 126.332 646.858 125.907 647.836 125.907C648.153 125.907 648.393 125.948 648.557 126.03V127.542ZM652.705 123.78V126.083H654.481V127.34H652.705V133.237C652.705 133.618 652.785 133.905 652.943 134.098C653.101 134.286 653.37 134.38 653.751 134.38C653.939 134.38 654.197 134.345 654.525 134.274V135.593C654.097 135.71 653.681 135.768 653.277 135.768C652.55 135.768 652.002 135.549 651.633 135.109C651.264 134.67 651.079 134.046 651.079 133.237V127.34H649.348V126.083H651.079V123.78H652.705ZM660.334 135.768C659.045 135.768 657.996 135.346 657.188 134.503C656.379 133.653 655.975 132.519 655.975 131.101V130.803C655.975 129.859 656.154 129.018 656.511 128.28C656.874 127.536 657.378 126.956 658.023 126.54C658.673 126.118 659.376 125.907 660.132 125.907C661.369 125.907 662.329 126.314 663.015 127.129C663.701 127.943 664.043 129.109 664.043 130.627V131.304H657.601C657.624 132.241 657.897 133 658.418 133.58C658.946 134.154 659.614 134.441 660.422 134.441C660.996 134.441 661.483 134.324 661.881 134.09C662.28 133.855 662.628 133.545 662.927 133.158L663.92 133.931C663.123 135.156 661.928 135.768 660.334 135.768ZM660.132 127.243C659.476 127.243 658.925 127.483 658.48 127.964C658.035 128.438 657.759 129.106 657.654 129.968H662.417V129.845C662.37 129.018 662.148 128.38 661.749 127.929C661.351 127.471 660.812 127.243 660.132 127.243ZM666.733 135.593V127.34H665.23V126.083H666.733V125.107C666.733 124.088 667.005 123.3 667.55 122.743C668.095 122.186 668.866 121.908 669.862 121.908C670.237 121.908 670.609 121.958 670.978 122.057L670.89 123.376C670.615 123.323 670.322 123.297 670.011 123.297C669.484 123.297 669.077 123.452 668.789 123.763C668.502 124.067 668.359 124.507 668.359 125.081V126.083H670.389V127.34H668.359V135.593H666.733ZM678.062 135.593C677.968 135.405 677.892 135.071 677.833 134.591C677.078 135.376 676.175 135.768 675.126 135.768C674.189 135.768 673.418 135.505 672.815 134.977C672.217 134.444 671.918 133.77 671.918 132.956C671.918 131.966 672.293 131.198 673.043 130.653C673.799 130.102 674.86 129.827 676.225 129.827H677.807V129.08C677.807 128.512 677.637 128.06 677.297 127.726C676.957 127.387 676.456 127.217 675.794 127.217C675.214 127.217 674.728 127.363 674.335 127.656C673.943 127.949 673.746 128.304 673.746 128.72H672.112C672.112 128.245 672.279 127.788 672.613 127.348C672.953 126.903 673.41 126.552 673.984 126.294C674.564 126.036 675.2 125.907 675.891 125.907C676.987 125.907 677.845 126.182 678.466 126.733C679.087 127.278 679.41 128.031 679.433 128.992V133.369C679.433 134.242 679.544 134.936 679.767 135.452V135.593H678.062ZM675.364 134.353C675.873 134.353 676.357 134.221 676.814 133.958C677.271 133.694 677.602 133.351 677.807 132.93V130.978H676.533C674.54 130.978 673.544 131.561 673.544 132.727C673.544 133.237 673.714 133.636 674.054 133.923C674.394 134.21 674.83 134.353 675.364 134.353ZM684.188 123.78V126.083H685.963V127.34H684.188V133.237C684.188 133.618 684.267 133.905 684.425 134.098C684.583 134.286 684.853 134.38 685.234 134.38C685.421 134.38 685.679 134.345 686.007 134.274V135.593C685.579 135.71 685.163 135.768 684.759 135.768C684.033 135.768 683.485 135.549 683.116 135.109C682.746 134.67 682.562 134.046 682.562 133.237V127.34H680.83V126.083H682.562V123.78H684.188ZM687.264 130.75C687.264 129.818 687.446 128.98 687.809 128.236C688.178 127.492 688.688 126.918 689.338 126.513C689.995 126.109 690.742 125.907 691.579 125.907C692.874 125.907 693.92 126.355 694.717 127.252C695.52 128.148 695.921 129.341 695.921 130.829V130.943C695.921 131.869 695.743 132.701 695.385 133.439C695.034 134.172 694.527 134.743 693.865 135.153C693.208 135.563 692.453 135.768 691.597 135.768C690.308 135.768 689.262 135.32 688.459 134.424C687.662 133.527 687.264 132.341 687.264 130.864V130.75ZM688.899 130.943C688.899 131.998 689.142 132.845 689.628 133.483C690.12 134.122 690.777 134.441 691.597 134.441C692.423 134.441 693.079 134.119 693.566 133.474C694.052 132.824 694.295 131.916 694.295 130.75C694.295 129.707 694.046 128.863 693.548 128.219C693.056 127.568 692.4 127.243 691.579 127.243C690.777 127.243 690.129 127.562 689.637 128.201C689.145 128.84 688.899 129.754 688.899 130.943Z" fill="#939292"/>
<path d="M641.315 178.135H637.202V189.543H635.523V178.135H631.418V176.746H641.315V178.135ZM646.026 189.719C644.737 189.719 643.688 189.297 642.879 188.453C642.071 187.604 641.666 186.47 641.666 185.052V184.753C641.666 183.81 641.845 182.969 642.203 182.231C642.566 181.487 643.07 180.906 643.714 180.49C644.365 180.069 645.068 179.858 645.824 179.858C647.06 179.858 648.021 180.265 648.706 181.079C649.392 181.894 649.735 183.06 649.735 184.577V185.254H643.292C643.316 186.192 643.588 186.95 644.11 187.531C644.637 188.105 645.305 188.392 646.114 188.392C646.688 188.392 647.174 188.275 647.573 188.04C647.971 187.806 648.32 187.495 648.619 187.109L649.612 187.882C648.815 189.107 647.62 189.719 646.026 189.719ZM645.824 181.194C645.167 181.194 644.617 181.434 644.171 181.914C643.726 182.389 643.451 183.057 643.345 183.918H648.109V183.795C648.062 182.969 647.839 182.33 647.441 181.879C647.042 181.422 646.503 181.194 645.824 181.194ZM657.161 187.021C657.161 186.581 656.995 186.241 656.661 186.001C656.332 185.755 655.755 185.544 654.929 185.368C654.109 185.193 653.455 184.982 652.969 184.736C652.489 184.49 652.131 184.197 651.897 183.857C651.668 183.517 651.554 183.113 651.554 182.644C651.554 181.865 651.882 181.205 652.538 180.666C653.201 180.127 654.044 179.858 655.07 179.858C656.148 179.858 657.021 180.136 657.689 180.693C658.363 181.249 658.7 181.961 658.7 182.828H657.065C657.065 182.383 656.874 181.999 656.494 181.677C656.119 181.355 655.644 181.194 655.07 181.194C654.478 181.194 654.015 181.323 653.681 181.58C653.347 181.838 653.18 182.175 653.18 182.591C653.18 182.984 653.335 183.28 653.646 183.479C653.956 183.678 654.516 183.868 655.325 184.05C656.139 184.232 656.798 184.448 657.302 184.7C657.806 184.952 658.178 185.257 658.418 185.615C658.664 185.966 658.787 186.397 658.787 186.906C658.787 187.756 658.448 188.439 657.768 188.954C657.088 189.464 656.206 189.719 655.122 189.719C654.361 189.719 653.687 189.584 653.101 189.315C652.515 189.045 652.055 188.67 651.721 188.19C651.393 187.703 651.229 187.179 651.229 186.616H652.855C652.884 187.161 653.101 187.595 653.505 187.917C653.915 188.234 654.454 188.392 655.122 188.392C655.738 188.392 656.23 188.269 656.599 188.023C656.974 187.771 657.161 187.437 657.161 187.021ZM660.475 184.7C660.475 183.769 660.657 182.931 661.02 182.187C661.389 181.443 661.899 180.868 662.549 180.464C663.205 180.06 663.953 179.858 664.79 179.858C666.085 179.858 667.131 180.306 667.928 181.202C668.731 182.099 669.132 183.291 669.132 184.78V184.894C669.132 185.82 668.953 186.652 668.596 187.39C668.245 188.122 667.738 188.694 667.076 189.104C666.419 189.514 665.663 189.719 664.808 189.719C663.519 189.719 662.473 189.271 661.67 188.374C660.873 187.478 660.475 186.291 660.475 184.815V184.7ZM662.11 184.894C662.11 185.948 662.353 186.795 662.839 187.434C663.331 188.073 663.988 188.392 664.808 188.392C665.634 188.392 666.29 188.07 666.777 187.425C667.263 186.775 667.506 185.866 667.506 184.7C667.506 183.657 667.257 182.814 666.759 182.169C666.267 181.519 665.611 181.194 664.79 181.194C663.988 181.194 663.34 181.513 662.848 182.152C662.356 182.79 662.11 183.704 662.11 184.894ZM677.042 188.603C676.41 189.347 675.481 189.719 674.256 189.719C673.243 189.719 672.469 189.426 671.936 188.84C671.409 188.248 671.142 187.375 671.136 186.221V180.033H672.762V186.177C672.762 187.618 673.348 188.339 674.52 188.339C675.762 188.339 676.588 187.876 676.998 186.95V180.033H678.624V189.543H677.078L677.042 188.603ZM685.7 181.492C685.453 181.451 685.187 181.431 684.9 181.431C683.833 181.431 683.11 181.885 682.729 182.793V189.543H681.103V180.033H682.685L682.711 181.132C683.245 180.282 684 179.858 684.979 179.858C685.295 179.858 685.536 179.899 685.7 179.981V181.492ZM686.596 184.7C686.596 183.769 686.778 182.931 687.141 182.187C687.51 181.443 688.02 180.868 688.67 180.464C689.327 180.06 690.074 179.858 690.911 179.858C692.206 179.858 693.252 180.306 694.049 181.202C694.852 182.099 695.253 183.291 695.253 184.78V184.894C695.253 185.82 695.075 186.652 694.717 187.39C694.366 188.122 693.859 188.694 693.197 189.104C692.54 189.514 691.785 189.719 690.929 189.719C689.64 189.719 688.594 189.271 687.791 188.374C686.995 187.478 686.596 186.291 686.596 184.815V184.7ZM688.231 184.894C688.231 185.948 688.474 186.795 688.96 187.434C689.453 188.073 690.109 188.392 690.929 188.392C691.755 188.392 692.411 188.07 692.898 187.425C693.384 186.775 693.627 185.866 693.627 184.7C693.627 183.657 693.378 182.814 692.88 182.169C692.388 181.519 691.732 181.194 690.911 181.194C690.109 181.194 689.461 181.513 688.969 182.152C688.477 182.79 688.231 183.704 688.231 184.894Z" fill="#939292"/>
<circle cx="394.074" cy="483.21" r="16.4198" fill="#19D2EB"/>
<circle cx="16.4198" cy="229.877" r="16.4198" fill="#C4C4C4"/>
<circle cx="65.679" cy="229.877" r="16.4198" fill="#C4C4C4"/>
<circle cx="63.3333" cy="126.667" r="16.4198" fill="#C4C4C4"/>
<circle cx="119.63" cy="129.012" r="16.4198" fill="#C4C4C4"/>
<circle cx="187.654" cy="129.012" r="16.4198" fill="#9B0D9E"/>
<circle cx="117.284" cy="227.531" r="16.4198" fill="#C4C4C4"/>
<circle cx="166.543" cy="227.531" r="16.4198" fill="#E31919"/>
<circle cx="168.889" cy="178.272" r="16.4198" fill="#21D61D"/>
<circle cx="117.284" cy="274.444" r="16.4198" fill="#21D61D"/>
<circle cx="65.679" cy="72.716" r="16.4198" fill="#21D61D"/>
<circle cx="140.741" cy="25.8025" r="16.4198" fill="#C4C4C4"/>
<circle cx="16.4198" cy="25.8025" r="16.4198" fill="#19D2EB"/>
<circle cx="140.741" cy="77.4074" r="16.4198" fill="#EF1313"/>
<circle cx="422.222" cy="77.4074" r="16.4198" fill="#C4C4C4"/>
<circle cx="469.136" cy="23.4568" r="16.4198" fill="#C4C4C4"/>
<circle cx="192.346" cy="23.4568" r="16.4198" fill="#9B0D9E"/>
<circle cx="584.074" cy="239.259" r="16.4198" fill="#9B0D9E"/>
<path d="M641.315 234.431H637.202V245.84H635.523V234.431H631.418V233.043H641.315V234.431ZM646.026 246.015C644.737 246.015 643.688 245.593 642.879 244.75C642.071 243.9 641.666 242.766 641.666 241.348V241.049C641.666 240.106 641.845 239.265 642.203 238.527C642.566 237.783 643.07 237.203 643.714 236.787C644.365 236.365 645.068 236.154 645.824 236.154C647.06 236.154 648.021 236.561 648.706 237.376C649.392 238.19 649.735 239.356 649.735 240.874V241.55H643.292C643.316 242.488 643.588 243.247 644.11 243.827C644.637 244.401 645.305 244.688 646.114 244.688C646.688 244.688 647.174 244.571 647.573 244.337C647.971 244.102 648.32 243.792 648.619 243.405L649.612 244.178C648.815 245.403 647.62 246.015 646.026 246.015ZM645.824 237.49C645.167 237.49 644.617 237.73 644.171 238.211C643.726 238.685 643.451 239.353 643.345 240.215H648.109V240.091C648.062 239.265 647.839 238.627 647.441 238.175C647.042 237.718 646.503 237.49 645.824 237.49ZM653.391 245.84H651.765V232.34H653.391V245.84ZM659.948 246.015C658.659 246.015 657.61 245.593 656.801 244.75C655.993 243.9 655.588 242.766 655.588 241.348V241.049C655.588 240.106 655.767 239.265 656.124 238.527C656.488 237.783 656.992 237.203 657.636 236.787C658.286 236.365 658.99 236.154 659.745 236.154C660.982 236.154 661.943 236.561 662.628 237.376C663.314 238.19 663.657 239.356 663.657 240.874V241.55H657.214C657.238 242.488 657.51 243.247 658.032 243.827C658.559 244.401 659.227 244.688 660.036 244.688C660.61 244.688 661.096 244.571 661.495 244.337C661.893 244.102 662.242 243.792 662.54 243.405L663.534 244.178C662.737 245.403 661.541 246.015 659.948 246.015ZM659.745 237.49C659.089 237.49 658.538 237.73 658.093 238.211C657.648 238.685 657.372 239.353 657.267 240.215H662.031V240.091C661.984 239.265 661.761 238.627 661.363 238.175C660.964 237.718 660.425 237.49 659.745 237.49ZM667.752 234.027V236.33H669.528V237.587H667.752V243.484C667.752 243.865 667.831 244.152 667.99 244.345C668.148 244.533 668.417 244.627 668.798 244.627C668.986 244.627 669.244 244.591 669.572 244.521V245.84C669.144 245.957 668.728 246.015 668.324 246.015C667.597 246.015 667.049 245.796 666.68 245.356C666.311 244.917 666.126 244.293 666.126 243.484V237.587H664.395V236.33H666.126V234.027H667.752ZM676.032 237.789C675.786 237.748 675.519 237.727 675.232 237.727C674.165 237.727 673.442 238.181 673.061 239.09V245.84H671.435V236.33H673.017L673.043 237.428C673.577 236.579 674.332 236.154 675.311 236.154C675.627 236.154 675.868 236.195 676.032 236.277V237.789ZM683.054 245.84C682.96 245.652 682.884 245.318 682.826 244.838C682.07 245.623 681.167 246.015 680.119 246.015C679.181 246.015 678.411 245.752 677.807 245.224C677.209 244.691 676.911 244.017 676.911 243.203C676.911 242.213 677.286 241.445 678.036 240.9C678.791 240.349 679.852 240.074 681.217 240.074H682.799V239.327C682.799 238.758 682.629 238.307 682.289 237.973C681.95 237.633 681.449 237.464 680.786 237.464C680.206 237.464 679.72 237.61 679.328 237.903C678.935 238.196 678.739 238.55 678.739 238.966H677.104C677.104 238.492 677.271 238.035 677.605 237.595C677.945 237.15 678.402 236.798 678.976 236.541C679.556 236.283 680.192 236.154 680.883 236.154C681.979 236.154 682.837 236.429 683.458 236.98C684.079 237.525 684.402 238.278 684.425 239.239V243.616C684.425 244.489 684.536 245.183 684.759 245.699V245.84H683.054ZM680.356 244.6C680.866 244.6 681.349 244.468 681.806 244.205C682.263 243.941 682.594 243.598 682.799 243.176V241.225H681.525C679.533 241.225 678.536 241.808 678.536 242.974C678.536 243.484 678.706 243.882 679.046 244.17C679.386 244.457 679.823 244.6 680.356 244.6ZM688.512 236.33L688.565 237.525C689.291 236.611 690.241 236.154 691.412 236.154C693.422 236.154 694.436 237.288 694.453 239.555V245.84H692.828V239.547C692.822 238.861 692.663 238.354 692.353 238.026C692.048 237.698 691.571 237.534 690.92 237.534C690.393 237.534 689.93 237.674 689.532 237.956C689.133 238.237 688.823 238.606 688.6 239.063V245.84H686.974V236.33H688.512ZM702.443 243.317C702.443 242.878 702.276 242.538 701.942 242.298C701.614 242.051 701.036 241.84 700.21 241.665C699.39 241.489 698.737 241.278 698.25 241.032C697.77 240.786 697.412 240.493 697.178 240.153C696.95 239.813 696.835 239.409 696.835 238.94C696.835 238.161 697.163 237.502 697.82 236.963C698.482 236.423 699.326 236.154 700.351 236.154C701.429 236.154 702.302 236.432 702.97 236.989C703.644 237.546 703.981 238.257 703.981 239.125H702.346C702.346 238.679 702.156 238.296 701.775 237.973C701.4 237.651 700.925 237.49 700.351 237.49C699.759 237.49 699.296 237.619 698.962 237.877C698.628 238.134 698.461 238.471 698.461 238.887C698.461 239.28 698.617 239.576 698.927 239.775C699.238 239.974 699.797 240.165 700.606 240.346C701.42 240.528 702.079 240.745 702.583 240.997C703.087 241.249 703.459 241.553 703.7 241.911C703.946 242.262 704.069 242.693 704.069 243.203C704.069 244.052 703.729 244.735 703.049 245.251C702.37 245.76 701.488 246.015 700.404 246.015C699.642 246.015 698.968 245.881 698.382 245.611C697.796 245.341 697.336 244.966 697.002 244.486C696.674 244 696.51 243.475 696.51 242.913H698.136C698.165 243.458 698.382 243.891 698.786 244.214C699.197 244.53 699.736 244.688 700.404 244.688C701.019 244.688 701.511 244.565 701.88 244.319C702.255 244.067 702.443 243.733 702.443 243.317ZM714.22 241.19C714.22 242.637 713.889 243.803 713.227 244.688C712.565 245.573 711.668 246.015 710.537 246.015C709.383 246.015 708.475 245.649 707.813 244.917V249.496H706.187V236.33H707.672L707.751 237.384C708.413 236.564 709.333 236.154 710.511 236.154C711.654 236.154 712.556 236.585 713.218 237.446C713.886 238.307 714.22 239.506 714.22 241.041V241.19ZM712.594 241.006C712.594 239.933 712.366 239.087 711.909 238.465C711.452 237.844 710.825 237.534 710.028 237.534C709.043 237.534 708.305 237.97 707.813 238.843V243.387C708.299 244.255 709.043 244.688 710.045 244.688C710.825 244.688 711.443 244.381 711.9 243.765C712.363 243.144 712.594 242.224 712.594 241.006ZM715.864 240.997C715.864 240.065 716.045 239.227 716.409 238.483C716.778 237.739 717.287 237.165 717.938 236.76C718.594 236.356 719.341 236.154 720.179 236.154C721.474 236.154 722.52 236.602 723.317 237.499C724.12 238.395 724.521 239.588 724.521 241.076V241.19C724.521 242.116 724.342 242.948 723.985 243.686C723.633 244.419 723.126 244.99 722.464 245.4C721.808 245.81 721.052 246.015 720.197 246.015C718.908 246.015 717.862 245.567 717.059 244.671C716.262 243.774 715.864 242.588 715.864 241.111V240.997ZM717.498 241.19C717.498 242.245 717.742 243.091 718.228 243.73C718.72 244.369 719.376 244.688 720.197 244.688C721.023 244.688 721.679 244.366 722.165 243.721C722.652 243.071 722.895 242.163 722.895 240.997C722.895 239.954 722.646 239.11 722.148 238.465C721.656 237.815 720.999 237.49 720.179 237.49C719.376 237.49 718.729 237.809 718.237 238.448C717.745 239.087 717.498 240.001 717.498 241.19ZM731.157 237.789C730.911 237.748 730.644 237.727 730.357 237.727C729.29 237.727 728.567 238.181 728.186 239.09V245.84H726.56V236.33H728.142L728.168 237.428C728.702 236.579 729.457 236.154 730.436 236.154C730.752 236.154 730.993 236.195 731.157 236.277V237.789ZM735.305 234.027V236.33H737.08V237.587H735.305V243.484C735.305 243.865 735.384 244.152 735.542 244.345C735.701 244.533 735.97 244.627 736.351 244.627C736.538 244.627 736.796 244.591 737.124 244.521V245.84C736.697 245.957 736.281 246.015 735.876 246.015C735.15 246.015 734.602 245.796 734.233 245.356C733.864 244.917 733.679 244.293 733.679 243.484V237.587H731.948V236.33H733.679V234.027H735.305ZM742.934 246.015C741.645 246.015 740.596 245.593 739.787 244.75C738.979 243.9 738.575 242.766 738.575 241.348V241.049C738.575 240.106 738.753 239.265 739.111 238.527C739.474 237.783 739.978 237.203 740.622 236.787C741.273 236.365 741.976 236.154 742.732 236.154C743.968 236.154 744.929 236.561 745.615 237.376C746.3 238.19 746.643 239.356 746.643 240.874V241.55H740.201C740.224 242.488 740.496 243.247 741.018 243.827C741.545 244.401 742.213 244.688 743.022 244.688C743.596 244.688 744.082 244.571 744.481 244.337C744.879 244.102 745.228 243.792 745.527 243.405L746.52 244.178C745.723 245.403 744.528 246.015 742.934 246.015ZM742.732 237.49C742.076 237.49 741.525 237.73 741.079 238.211C740.634 238.685 740.359 239.353 740.253 240.215H745.017V240.091C744.97 239.265 744.747 238.627 744.349 238.175C743.951 237.718 743.411 237.49 742.732 237.49ZM756.944 246.015C755.655 246.015 754.606 245.593 753.797 244.75C752.989 243.9 752.584 242.766 752.584 241.348V241.049C752.584 240.106 752.763 239.265 753.12 238.527C753.484 237.783 753.988 237.203 754.632 236.787C755.283 236.365 755.986 236.154 756.742 236.154C757.978 236.154 758.939 236.561 759.624 237.376C760.31 238.19 760.653 239.356 760.653 240.874V241.55H754.21C754.234 242.488 754.506 243.247 755.028 243.827C755.555 244.401 756.223 244.688 757.032 244.688C757.606 244.688 758.092 244.571 758.491 244.337C758.889 244.102 759.238 243.792 759.536 243.405L760.53 244.178C759.733 245.403 758.537 246.015 756.944 246.015ZM756.742 237.49C756.085 237.49 755.535 237.73 755.089 238.211C754.644 238.685 754.369 239.353 754.263 240.215H759.027V240.091C758.98 239.265 758.757 238.627 758.359 238.175C757.96 237.718 757.421 237.49 756.742 237.49ZM764.08 236.33L764.133 237.525C764.86 236.611 765.809 236.154 766.981 236.154C768.991 236.154 770.004 237.288 770.022 239.555V245.84H768.396V239.547C768.39 238.861 768.232 238.354 767.921 238.026C767.617 237.698 767.139 237.534 766.489 237.534C765.961 237.534 765.498 237.674 765.1 237.956C764.702 238.237 764.391 238.606 764.168 239.063V245.84H762.542V236.33H764.08ZM774.68 234.027V236.33H776.455V237.587H774.68V243.484C774.68 243.865 774.759 244.152 774.917 244.345C775.076 244.533 775.345 244.627 775.726 244.627C775.913 244.627 776.171 244.591 776.499 244.521V245.84C776.072 245.957 775.656 246.015 775.251 246.015C774.525 246.015 773.977 245.796 773.608 245.356C773.239 244.917 773.054 244.293 773.054 243.484V237.587H771.323V236.33H773.054V234.027H774.68ZM782.959 237.789C782.713 237.748 782.447 237.727 782.16 237.727C781.093 237.727 780.37 238.181 779.989 239.09V245.84H778.363V236.33H779.945L779.971 237.428C780.504 236.579 781.26 236.154 782.239 236.154C782.555 236.154 782.795 236.195 782.959 236.277V237.789ZM789.982 245.84C789.888 245.652 789.812 245.318 789.753 244.838C788.997 245.623 788.095 246.015 787.046 246.015C786.109 246.015 785.338 245.752 784.735 245.224C784.137 244.691 783.838 244.017 783.838 243.203C783.838 242.213 784.213 241.445 784.963 240.9C785.719 240.349 786.78 240.074 788.145 240.074H789.727V239.327C789.727 238.758 789.557 238.307 789.217 237.973C788.877 237.633 788.376 237.464 787.714 237.464C787.134 237.464 786.648 237.61 786.255 237.903C785.863 238.196 785.666 238.55 785.666 238.966H784.032C784.032 238.492 784.199 238.035 784.533 237.595C784.872 237.15 785.329 236.798 785.904 236.541C786.484 236.283 787.12 236.154 787.811 236.154C788.907 236.154 789.765 236.429 790.386 236.98C791.007 237.525 791.329 238.278 791.353 239.239V243.616C791.353 244.489 791.464 245.183 791.687 245.699V245.84H789.982ZM787.284 244.6C787.793 244.6 788.277 244.468 788.734 244.205C789.191 243.941 789.522 243.598 789.727 243.176V241.225H788.453C786.46 241.225 785.464 241.808 785.464 242.974C785.464 243.484 785.634 243.882 785.974 244.17C786.314 244.457 786.75 244.6 787.284 244.6ZM793.506 241.006C793.506 239.547 793.852 238.375 794.543 237.49C795.235 236.599 796.14 236.154 797.259 236.154C798.372 236.154 799.254 236.535 799.905 237.297V232.34H801.531V245.84H800.036L799.957 244.82C799.307 245.617 798.402 246.015 797.242 246.015C796.14 246.015 795.241 245.564 794.543 244.662C793.852 243.759 793.506 242.582 793.506 241.129V241.006ZM795.132 241.19C795.132 242.268 795.355 243.112 795.8 243.721C796.245 244.331 796.861 244.635 797.646 244.635C798.677 244.635 799.43 244.173 799.905 243.247V238.879C799.418 237.982 798.671 237.534 797.663 237.534C796.867 237.534 796.245 237.841 795.8 238.457C795.355 239.072 795.132 239.983 795.132 241.19ZM809.933 245.84C809.839 245.652 809.763 245.318 809.704 244.838C808.949 245.623 808.046 246.015 806.997 246.015C806.06 246.015 805.289 245.752 804.686 245.224C804.088 244.691 803.789 244.017 803.789 243.203C803.789 242.213 804.164 241.445 804.914 240.9C805.67 240.349 806.731 240.074 808.096 240.074H809.678V239.327C809.678 238.758 809.508 238.307 809.168 237.973C808.828 237.633 808.328 237.464 807.665 237.464C807.085 237.464 806.599 237.61 806.206 237.903C805.814 238.196 805.618 238.55 805.618 238.966H803.983C803.983 238.492 804.15 238.035 804.484 237.595C804.824 237.15 805.281 236.798 805.855 236.541C806.435 236.283 807.071 236.154 807.762 236.154C808.858 236.154 809.716 236.429 810.337 236.98C810.958 237.525 811.281 238.278 811.304 239.239V243.616C811.304 244.489 811.415 245.183 811.638 245.699V245.84H809.933ZM807.235 244.6C807.745 244.6 808.228 244.468 808.685 244.205C809.142 243.941 809.473 243.598 809.678 243.176V241.225H808.404C806.411 241.225 805.415 241.808 805.415 242.974C805.415 243.484 805.585 243.882 805.925 244.17C806.265 244.457 806.702 244.6 807.235 244.6Z" fill="#939292"/>
<circle cx="584.074" cy="239.259" r="16.4198" fill="#9B0D9E"/>
<path d="M632.473 299.79V286.993H636.085C637.199 286.993 638.183 287.239 639.038 287.732C639.894 288.224 640.553 288.924 641.016 289.832C641.485 290.74 641.722 291.783 641.728 292.961V293.778C641.728 294.985 641.494 296.043 641.025 296.951C640.562 297.859 639.897 298.557 639.03 299.043C638.168 299.529 637.163 299.778 636.015 299.79H632.473ZM634.161 288.382V298.41H635.936C637.237 298.41 638.247 298.006 638.968 297.197C639.695 296.389 640.058 295.237 640.058 293.743V292.996C640.058 291.543 639.715 290.415 639.03 289.612C638.35 288.804 637.383 288.394 636.129 288.382H634.161ZM645.797 299.79H644.171V290.28H645.797V299.79ZM644.039 287.758C644.039 287.494 644.119 287.272 644.277 287.09C644.441 286.908 644.681 286.817 644.997 286.817C645.314 286.817 645.554 286.908 645.718 287.09C645.882 287.272 645.964 287.494 645.964 287.758C645.964 288.022 645.882 288.241 645.718 288.417C645.554 288.593 645.314 288.681 644.997 288.681C644.681 288.681 644.441 288.593 644.277 288.417C644.119 288.241 644.039 288.022 644.039 287.758ZM652.222 298.639C652.802 298.639 653.309 298.463 653.743 298.111C654.176 297.76 654.416 297.32 654.463 296.793H656.001C655.972 297.338 655.785 297.857 655.439 298.349C655.093 298.841 654.63 299.233 654.05 299.526C653.476 299.819 652.867 299.966 652.222 299.966C650.927 299.966 649.896 299.535 649.128 298.674C648.367 297.807 647.986 296.623 647.986 295.123V294.851C647.986 293.925 648.156 293.102 648.495 292.381C648.835 291.66 649.322 291.101 649.954 290.702C650.593 290.304 651.346 290.105 652.213 290.105C653.28 290.105 654.164 290.424 654.868 291.063C655.577 291.701 655.954 292.53 656.001 293.55H654.463C654.416 292.935 654.182 292.431 653.76 292.038C653.344 291.64 652.828 291.441 652.213 291.441C651.387 291.441 650.745 291.739 650.288 292.337C649.837 292.929 649.612 293.787 649.612 294.912V295.22C649.612 296.316 649.837 297.159 650.288 297.751C650.74 298.343 651.384 298.639 652.222 298.639ZM663.701 299.79C663.607 299.603 663.531 299.269 663.472 298.788C662.716 299.573 661.814 299.966 660.765 299.966C659.828 299.966 659.057 299.702 658.453 299.175C657.856 298.642 657.557 297.968 657.557 297.153C657.557 296.163 657.932 295.396 658.682 294.851C659.438 294.3 660.498 294.025 661.864 294.025H663.446V293.277C663.446 292.709 663.276 292.258 662.936 291.924C662.596 291.584 662.095 291.414 661.433 291.414C660.853 291.414 660.367 291.561 659.974 291.854C659.581 292.147 659.385 292.501 659.385 292.917H657.75C657.75 292.442 657.917 291.985 658.251 291.546C658.591 291.101 659.048 290.749 659.622 290.491C660.203 290.233 660.838 290.105 661.53 290.105C662.625 290.105 663.484 290.38 664.105 290.931C664.726 291.476 665.048 292.229 665.072 293.19V297.566C665.072 298.44 665.183 299.134 665.406 299.65V299.79H663.701ZM661.002 298.551C661.512 298.551 661.995 298.419 662.453 298.155C662.91 297.892 663.241 297.549 663.446 297.127V295.176H662.171C660.179 295.176 659.183 295.759 659.183 296.925C659.183 297.435 659.353 297.833 659.693 298.12C660.033 298.407 660.469 298.551 661.002 298.551ZM673.158 297.268C673.158 296.828 672.991 296.488 672.657 296.248C672.328 296.002 671.751 295.791 670.925 295.615C670.105 295.44 669.452 295.229 668.965 294.983C668.485 294.736 668.127 294.443 667.893 294.104C667.664 293.764 667.55 293.359 667.55 292.891C667.55 292.111 667.878 291.452 668.535 290.913C669.197 290.374 670.04 290.105 671.066 290.105C672.144 290.105 673.017 290.383 673.685 290.94C674.359 291.496 674.696 292.208 674.696 293.075H673.061C673.061 292.63 672.87 292.246 672.49 291.924C672.115 291.602 671.64 291.441 671.066 291.441C670.474 291.441 670.011 291.569 669.677 291.827C669.343 292.085 669.176 292.422 669.176 292.838C669.176 293.231 669.331 293.526 669.642 293.726C669.953 293.925 670.512 294.115 671.321 294.297C672.135 294.479 672.794 294.695 673.298 294.947C673.802 295.199 674.174 295.504 674.414 295.861C674.661 296.213 674.784 296.644 674.784 297.153C674.784 298.003 674.444 298.686 673.764 299.201C673.084 299.711 672.203 299.966 671.119 299.966C670.357 299.966 669.683 299.831 669.097 299.562C668.511 299.292 668.051 298.917 667.717 298.437C667.389 297.95 667.225 297.426 667.225 296.863H668.851C668.88 297.408 669.097 297.842 669.501 298.164C669.911 298.481 670.451 298.639 671.119 298.639C671.734 298.639 672.226 298.516 672.595 298.27C672.97 298.018 673.158 297.684 673.158 297.268Z" fill="#939292"/>
<circle cx="584.074" cy="293.21" r="16.4198" fill="#21D61D"/>
<circle cx="422.222" cy="429.259" r="16.4198" fill="#21D61D"/>
<circle cx="65.679" cy="429.259" r="16.4198" fill="#C4C4C4"/>
<circle cx="119.63" cy="321.358" r="16.4198" fill="#C4C4C4"/>
<circle cx="65.679" cy="321.358" r="16.4198" fill="#C4C4C4"/>
<circle cx="119.63" cy="375.309" r="16.4198" fill="#9B0D9E"/>
<circle cx="368.272" cy="375.309" r="16.4198" fill="#19D2EB"/>
<circle cx="368.272" cy="129.012" r="16.4198" fill="#21D61D"/>
<circle cx="243.951" cy="129.012" r="16.4198" fill="#C4C4C4"/>
<circle cx="243.951" cy="173.58" r="16.4198" fill="#C4C4C4"/>
<circle cx="316.667" cy="178.272" r="16.4198" fill="#EF1313"/>
<circle cx="316.667" cy="323.704" r="16.4198" fill="#C4C4C4"/>
<circle cx="168.889" cy="323.704" r="16.4198" fill="#19D2EB"/>
<circle cx="168.889" cy="281.482" r="16.4198" fill="#EB1616"/>
<circle cx="65.679" cy="274.444" r="16.4198" fill="#9B0D9E"/>
<path d="M466.872 480.292H468.094C468.861 480.28 469.465 480.078 469.904 479.686C470.344 479.293 470.564 478.763 470.564 478.095C470.564 476.595 469.817 475.845 468.322 475.845C467.619 475.845 467.057 476.047 466.635 476.451C466.219 476.85 466.011 477.38 466.011 478.042H464.385C464.385 477.028 464.754 476.188 465.492 475.52C466.236 474.846 467.18 474.509 468.322 474.509C469.529 474.509 470.476 474.828 471.161 475.467C471.847 476.105 472.19 476.993 472.19 478.13C472.19 478.687 472.008 479.226 471.645 479.747C471.287 480.269 470.798 480.658 470.177 480.916C470.88 481.139 471.422 481.508 471.803 482.023C472.19 482.539 472.383 483.169 472.383 483.913C472.383 485.062 472.008 485.973 471.258 486.647C470.508 487.32 469.532 487.657 468.331 487.657C467.13 487.657 466.151 487.332 465.396 486.682C464.646 486.031 464.271 485.173 464.271 484.106H465.905C465.905 484.78 466.125 485.319 466.565 485.724C467.004 486.128 467.593 486.33 468.331 486.33C469.116 486.33 469.717 486.125 470.133 485.715C470.549 485.305 470.757 484.716 470.757 483.948C470.757 483.204 470.528 482.633 470.071 482.234C469.614 481.836 468.955 481.631 468.094 481.619H466.872V480.292Z" fill="white"/>
<path d="M23.0018 484.184H24.7772V485.511H23.0018V488.481H21.367V485.511H15.5399V484.553L21.2704 475.685H23.0018V484.184ZM17.3856 484.184H21.367V477.908L21.1737 478.26L17.3856 484.184Z" fill="white"/>
<path d="M11.1933 231.078L11.8437 224.697H18.4003V226.2H13.2235L12.8368 229.689C13.4638 229.32 14.1757 229.135 14.9726 229.135C16.1386 229.135 17.0644 229.522 17.7499 230.296C18.4355 231.063 18.7782 232.103 18.7782 233.416C18.7782 234.734 18.4208 235.774 17.706 236.536C16.997 237.292 16.0038 237.67 14.7265 237.67C13.5956 237.67 12.6728 237.356 11.9579 236.729C11.2431 236.102 10.8358 235.235 10.7362 234.128H12.2743C12.3739 234.86 12.6347 235.414 13.0565 235.789C13.4784 236.158 14.0351 236.342 14.7265 236.342C15.4823 236.342 16.0741 236.085 16.5019 235.569C16.9355 235.053 17.1523 234.341 17.1523 233.433C17.1523 232.578 16.9179 231.892 16.4491 231.377C15.9862 230.855 15.3681 230.594 14.5946 230.594C13.8857 230.594 13.329 230.75 12.9247 231.06L12.494 231.412L11.1933 231.078Z" fill="black"/>
<path d="M18.8271 19.6141V20.994H18.5282C17.2626 21.0174 16.2548 21.3924 15.5048 22.119C14.7548 22.8455 14.3212 23.868 14.204 25.1864C14.8778 24.4129 15.7978 24.0262 16.9638 24.0262C18.0771 24.0262 18.9648 24.4188 19.6269 25.2039C20.2948 25.9891 20.6288 27.0028 20.6288 28.2449C20.6288 29.5633 20.2685 30.618 19.5478 31.409C18.8329 32.2 17.872 32.5955 16.6649 32.5955C15.4403 32.5955 14.4472 32.1268 13.6855 31.1893C12.9237 30.2459 12.5429 29.033 12.5429 27.5506V26.9266C12.5429 24.5711 13.0439 22.7723 14.0458 21.5301C15.0536 20.2821 16.5507 19.6434 18.537 19.6141H18.8271ZM16.6913 25.3797C16.1347 25.3797 15.622 25.5467 15.1532 25.8807C14.6845 26.2147 14.3593 26.6336 14.1776 27.1375V27.7352C14.1776 28.7899 14.4149 29.6395 14.8896 30.284C15.3642 30.9285 15.956 31.2508 16.6649 31.2508C17.3974 31.2508 17.9716 30.9813 18.3876 30.4422C18.8095 29.9032 19.0204 29.1971 19.0204 28.3241C19.0204 27.4451 18.8065 26.7362 18.3788 26.1971C17.9569 25.6522 17.3944 25.3797 16.6913 25.3797Z" fill="black"/>
<path d="M145.375 21.5369L140.075 33.4198H138.37L143.652 21.9588H136.726V20.6229H145.375V21.5369Z" fill="black"/>
<path d="M135.42 85.0247H133.785V74.1878L130.506 75.3919V73.9153L135.165 72.1663H135.42V85.0247ZM148.208 79.5667C148.208 81.471 147.882 82.886 147.232 83.8118C146.582 84.7376 145.565 85.2005 144.182 85.2005C142.817 85.2005 141.806 84.7493 141.15 83.847C140.494 82.9388 140.154 81.5852 140.13 79.7864V77.6155C140.13 75.7346 140.456 74.3372 141.106 73.4231C141.756 72.5091 142.776 72.052 144.165 72.052C145.542 72.052 146.555 72.4944 147.206 73.3792C147.856 74.2581 148.19 75.6175 148.208 77.4573V79.5667ZM146.582 77.343C146.582 75.9661 146.388 74.9641 146.002 74.3372C145.615 73.7044 145.003 73.388 144.165 73.388C143.333 73.388 142.726 73.7014 142.345 74.3284C141.964 74.9554 141.768 75.9192 141.756 77.22V79.8216C141.756 81.2044 141.956 82.2268 142.354 82.8889C142.758 83.5452 143.368 83.8733 144.182 83.8733C144.985 83.8733 145.58 83.5628 145.966 82.9417C146.359 82.3206 146.564 81.3421 146.582 80.0061V77.343Z" fill="white"/>
<path d="M417.901 84.0247H416.266V73.1878L412.988 74.3919V72.9153L417.646 71.1663H417.901V84.0247ZM428.008 84.0247H426.374V73.1878L423.095 74.3919V72.9153L427.754 71.1663H428.008V84.0247Z" fill="black"/>
<path d="M416.901 436.877H415.266V426.04L411.988 427.244V425.767L416.646 424.018H416.901V436.877ZM430.049 436.877H421.665V435.708L426.094 430.786C426.751 430.042 427.202 429.438 427.448 428.975C427.7 428.506 427.826 428.023 427.826 427.525C427.826 426.857 427.624 426.309 427.219 425.881C426.815 425.454 426.276 425.24 425.602 425.24C424.794 425.24 424.164 425.471 423.713 425.934C423.267 426.391 423.045 427.03 423.045 427.85H421.419C421.419 426.672 421.797 425.72 422.552 424.994C423.314 424.267 424.331 423.904 425.602 423.904C426.792 423.904 427.732 424.217 428.424 424.844C429.115 425.465 429.461 426.295 429.461 427.332C429.461 428.591 428.658 430.091 427.052 431.832L423.625 435.549H430.049V436.877Z" fill="white"/>
<path d="M60.3578 436.877H58.7231V426.04L55.4448 427.244V425.767L60.103 424.018H60.3578V436.877ZM67.4858 429.687H68.7075C69.475 429.675 70.0786 429.473 70.518 429.081C70.9575 428.688 71.1772 428.158 71.1772 427.49C71.1772 425.99 70.4301 425.24 68.936 425.24C68.2328 425.24 67.6703 425.442 67.2485 425.846C66.8325 426.245 66.6245 426.775 66.6245 427.437H64.9985C64.9985 426.423 65.3676 425.583 66.1059 424.915C66.85 424.241 67.7934 423.904 68.936 423.904C70.143 423.904 71.0893 424.223 71.7748 424.862C72.4604 425.501 72.8032 426.388 72.8032 427.525C72.8032 428.082 72.6215 428.621 72.2582 429.142C71.9008 429.664 71.4116 430.053 70.7905 430.311C71.4936 430.534 72.0356 430.903 72.4164 431.419C72.8032 431.934 72.9965 432.564 72.9965 433.308C72.9965 434.457 72.6215 435.368 71.8715 436.042C71.1215 436.715 70.1459 437.052 68.9448 437.052C67.7436 437.052 66.7651 436.727 66.0092 436.077C65.2592 435.426 64.8842 434.568 64.8842 433.502H66.519C66.519 434.175 66.7387 434.714 67.1782 435.119C67.6176 435.523 68.2065 435.725 68.9448 435.725C69.7299 435.725 70.3305 435.52 70.7465 435.11C71.1625 434.7 71.3705 434.111 71.3705 433.343C71.3705 432.599 71.142 432.028 70.685 431.629C70.228 431.231 69.5688 431.026 68.7075 431.014H67.4858V429.687Z" fill="black"/>
<path d="M60.3578 328.975H58.7231V318.138L55.4448 319.342V317.866L60.103 316.117H60.3578V328.975ZM71.9858 324.677H73.7612V326.005H71.9858V328.975H70.351V326.005H64.5239V325.047L70.2543 316.178H71.9858V324.677ZM66.3696 324.677H70.351V318.402L70.1577 318.754L66.3696 324.677Z" fill="black"/>
<path d="M63.3989 237.494H55.0141V236.325L59.4438 231.403C60.1 230.659 60.5512 230.055 60.7973 229.592C61.0493 229.124 61.1752 228.64 61.1752 228.142C61.1752 227.474 60.9731 226.926 60.5688 226.499C60.1645 226.071 59.6254 225.857 58.9516 225.857C58.143 225.857 57.5131 226.089 57.062 226.551C56.6166 227.008 56.394 227.647 56.394 228.467H54.768C54.768 227.29 55.1459 226.338 55.9018 225.611C56.6635 224.884 57.6801 224.521 58.9516 224.521C60.1411 224.521 61.0815 224.835 61.7729 225.462C62.4643 226.083 62.81 226.912 62.81 227.949C62.81 229.209 62.0073 230.709 60.4018 232.449L56.9741 236.167H63.3989V237.494ZM71.5024 224.688V226.068H71.2036C69.9379 226.091 68.9301 226.466 68.1801 227.193C67.4301 227.92 66.9965 228.942 66.8793 230.26C67.5532 229.487 68.4731 229.1 69.6391 229.1C70.7524 229.1 71.6401 229.493 72.3022 230.278C72.9702 231.063 73.3041 232.077 73.3041 233.319C73.3041 234.637 72.9438 235.692 72.2231 236.483C71.5082 237.274 70.5473 237.67 69.3403 237.67C68.1157 237.67 67.1225 237.201 66.3608 236.263C65.5991 235.32 65.2182 234.107 65.2182 232.625V232.001C65.2182 229.645 65.7192 227.846 66.7211 226.604C67.7289 225.356 69.226 224.717 71.2123 224.688H71.5024ZM69.3666 230.454C68.81 230.454 68.2973 230.621 67.8286 230.955C67.3598 231.289 67.0346 231.708 66.853 232.212V232.809C66.853 233.864 67.0903 234.714 67.5649 235.358C68.0395 236.003 68.6313 236.325 69.3403 236.325C70.0727 236.325 70.6469 236.055 71.0629 235.516C71.4848 234.977 71.6957 234.271 71.6957 233.398C71.6957 232.519 71.4819 231.81 71.0541 231.271C70.6323 230.726 70.0698 230.454 69.3666 230.454Z" fill="black"/>
<path d="M61.0532 134.284H52.6684V133.115L57.0981 128.193C57.7543 127.449 58.2055 126.845 58.4516 126.383C58.7036 125.914 58.8295 125.43 58.8295 124.932C58.8295 124.264 58.6274 123.717 58.2231 123.289C57.8188 122.861 57.2797 122.647 56.6059 122.647C55.7973 122.647 55.1674 122.879 54.7163 123.342C54.271 123.799 54.0483 124.437 54.0483 125.258H52.4223C52.4223 124.08 52.8002 123.128 53.5561 122.401C54.3178 121.675 55.3344 121.311 56.6059 121.311C57.7954 121.311 58.7358 121.625 59.4272 122.252C60.1186 122.873 60.4643 123.702 60.4643 124.739C60.4643 125.999 59.6616 127.499 58.0561 129.239L54.6284 132.957H61.0532V134.284ZM70.5366 124.827C70.5366 125.466 70.3667 126.034 70.0268 126.532C69.6928 127.03 69.2387 127.42 68.6645 127.701C69.3325 127.988 69.8598 128.407 70.2465 128.958C70.6391 129.509 70.8354 130.133 70.8354 130.83C70.8354 131.937 70.4604 132.819 69.7104 133.475C68.9663 134.132 67.9848 134.46 66.7661 134.46C65.5356 134.46 64.5483 134.132 63.8042 133.475C63.0659 132.813 62.6967 131.931 62.6967 130.83C62.6967 130.138 62.8842 129.514 63.2592 128.958C63.6401 128.401 64.1645 127.979 64.8325 127.692C64.2641 127.411 63.8159 127.021 63.4877 126.523C63.1596 126.025 62.9956 125.46 62.9956 124.827C62.9956 123.749 63.3413 122.893 64.0327 122.261C64.7241 121.628 65.6352 121.311 66.7661 121.311C67.8911 121.311 68.7993 121.628 69.4907 122.261C70.1879 122.893 70.5366 123.749 70.5366 124.827ZM69.2094 130.795C69.2094 130.08 68.9809 129.497 68.5239 129.046C68.0727 128.594 67.4809 128.369 66.7485 128.369C66.0161 128.369 65.4272 128.592 64.9819 129.037C64.5424 129.482 64.3227 130.068 64.3227 130.795C64.3227 131.521 64.5366 132.093 64.9643 132.509C65.3979 132.925 65.9985 133.133 66.7661 133.133C67.5278 133.133 68.1254 132.925 68.559 132.509C68.9926 132.087 69.2094 131.515 69.2094 130.795ZM66.7661 122.647C66.1274 122.647 65.6088 122.846 65.2104 123.245C64.8178 123.637 64.6215 124.174 64.6215 124.853C64.6215 125.504 64.8149 126.031 65.2016 126.435C65.5942 126.834 66.1157 127.033 66.7661 127.033C67.4165 127.033 67.935 126.834 68.3217 126.435C68.7143 126.031 68.9106 125.504 68.9106 124.853C68.9106 124.203 68.7085 123.673 68.3042 123.262C67.8999 122.852 67.3872 122.647 66.7661 122.647Z" fill="black"/>
<path d="M111.329 127.094H112.551C113.318 127.083 113.922 126.881 114.361 126.488C114.801 126.095 115.02 125.565 115.02 124.897C115.02 123.397 114.273 122.647 112.779 122.647C112.076 122.647 111.514 122.849 111.092 123.254C110.676 123.652 110.468 124.182 110.468 124.844H108.842C108.842 123.831 109.211 122.99 109.949 122.322C110.693 121.648 111.637 121.311 112.779 121.311C113.986 121.311 114.932 121.631 115.618 122.269C116.304 122.908 116.646 123.796 116.646 124.932C116.646 125.489 116.465 126.028 116.101 126.55C115.744 127.071 115.255 127.461 114.634 127.719C115.337 127.941 115.879 128.31 116.26 128.826C116.646 129.342 116.84 129.971 116.84 130.716C116.84 131.864 116.465 132.775 115.715 133.449C114.965 134.123 113.989 134.46 112.788 134.46C111.587 134.46 110.608 134.135 109.852 133.484C109.102 132.834 108.727 131.975 108.727 130.909H110.362C110.362 131.583 110.582 132.122 111.021 132.526C111.461 132.93 112.05 133.133 112.788 133.133C113.573 133.133 114.174 132.928 114.59 132.517C115.006 132.107 115.214 131.518 115.214 130.751C115.214 130.007 114.985 129.435 114.528 129.037C114.071 128.638 113.412 128.433 112.551 128.422H111.329V127.094ZM127.097 128.826C127.097 130.73 126.771 132.145 126.121 133.071C125.471 133.997 124.454 134.46 123.071 134.46C121.706 134.46 120.695 134.009 120.039 133.106C119.383 132.198 119.043 130.844 119.019 129.046V126.875C119.019 124.994 119.345 123.596 119.995 122.682C120.645 121.768 121.665 121.311 123.054 121.311C124.431 121.311 125.444 121.754 126.095 122.638C126.745 123.517 127.079 124.877 127.097 126.717V128.826ZM125.471 126.602C125.471 125.225 125.277 124.223 124.891 123.596C124.504 122.964 123.891 122.647 123.054 122.647C122.222 122.647 121.615 122.961 121.234 123.588C120.853 124.215 120.657 125.178 120.645 126.479V129.081C120.645 130.464 120.845 131.486 121.243 132.148C121.647 132.804 122.257 133.133 123.071 133.133C123.874 133.133 124.469 132.822 124.855 132.201C125.248 131.58 125.453 130.601 125.471 129.265V126.602Z" fill="black"/>
<path d="M181.699 129.44H182.921C183.689 129.428 184.292 129.226 184.732 128.834C185.171 128.441 185.391 127.911 185.391 127.243C185.391 125.743 184.644 124.993 183.15 124.993C182.446 124.993 181.884 125.195 181.462 125.599C181.046 125.998 180.838 126.528 180.838 127.19H179.212C179.212 126.177 179.581 125.336 180.319 124.668C181.064 123.994 182.007 123.657 183.15 123.657C184.357 123.657 185.303 123.976 185.988 124.615C186.674 125.254 187.017 126.141 187.017 127.278C187.017 127.835 186.835 128.374 186.472 128.895C186.114 129.417 185.625 129.806 185.004 130.064C185.707 130.287 186.249 130.656 186.63 131.172C187.017 131.687 187.21 132.317 187.21 133.061C187.21 134.21 186.835 135.121 186.085 135.795C185.335 136.468 184.359 136.805 183.158 136.805C181.957 136.805 180.979 136.48 180.223 135.83C179.473 135.179 179.098 134.321 179.098 133.255H180.733C180.733 133.928 180.952 134.468 181.392 134.872C181.831 135.276 182.42 135.478 183.158 135.478C183.943 135.478 184.544 135.273 184.96 134.863C185.376 134.453 185.584 133.864 185.584 133.096C185.584 132.352 185.356 131.781 184.899 131.383C184.442 130.984 183.782 130.779 182.921 130.767H181.699V129.44ZM194.786 136.63H193.151V125.793L189.873 126.997V125.52L194.531 123.771H194.786V136.63Z" fill="white"/>
<path d="M111.329 227.959H112.551C113.318 227.947 113.922 227.745 114.361 227.352C114.801 226.96 115.02 226.429 115.02 225.761C115.02 224.261 114.273 223.511 112.779 223.511C112.076 223.511 111.514 223.714 111.092 224.118C110.676 224.516 110.468 225.047 110.468 225.709H108.842C108.842 224.695 109.211 223.854 109.949 223.186C110.693 222.512 111.637 222.175 112.779 222.175C113.986 222.175 114.932 222.495 115.618 223.133C116.304 223.772 116.646 224.66 116.646 225.797C116.646 226.353 116.465 226.892 116.101 227.414C115.744 227.935 115.255 228.325 114.634 228.583C115.337 228.805 115.879 229.175 116.26 229.69C116.646 230.206 116.84 230.836 116.84 231.58C116.84 232.728 116.465 233.639 115.715 234.313C114.965 234.987 113.989 235.324 112.788 235.324C111.587 235.324 110.608 234.999 109.852 234.348C109.102 233.698 108.727 232.84 108.727 231.773H110.362C110.362 232.447 110.582 232.986 111.021 233.39C111.461 233.795 112.05 233.997 112.788 233.997C113.573 233.997 114.174 233.792 114.59 233.382C115.006 232.971 115.214 232.383 115.214 231.615C115.214 230.871 114.985 230.3 114.528 229.901C114.071 229.503 113.412 229.298 112.551 229.286H111.329V227.959ZM127.457 235.148H119.072V233.979L123.502 229.057C124.158 228.313 124.609 227.71 124.855 227.247C125.107 226.778 125.233 226.295 125.233 225.797C125.233 225.129 125.031 224.581 124.627 224.153C124.223 223.725 123.683 223.511 123.01 223.511C122.201 223.511 121.571 223.743 121.12 224.206C120.675 224.663 120.452 225.301 120.452 226.122H118.826C118.826 224.944 119.204 223.992 119.96 223.265C120.722 222.539 121.738 222.175 123.01 222.175C124.199 222.175 125.14 222.489 125.831 223.116C126.522 223.737 126.868 224.566 126.868 225.603C126.868 226.863 126.065 228.363 124.46 230.103L121.032 233.821H127.457V235.148Z" fill="black"/>
<path d="M111.329 274.872H112.551C113.318 274.861 113.922 274.658 114.361 274.266C114.801 273.873 115.02 273.343 115.02 272.675C115.02 271.175 114.273 270.425 112.779 270.425C112.076 270.425 111.514 270.627 111.092 271.031C110.676 271.43 110.468 271.96 110.468 272.622H108.842C108.842 271.609 109.211 270.768 109.949 270.1C110.693 269.426 111.637 269.089 112.779 269.089C113.986 269.089 114.932 269.408 115.618 270.047C116.304 270.686 116.646 271.573 116.646 272.71C116.646 273.267 116.465 273.806 116.101 274.327C115.744 274.849 115.255 275.238 114.634 275.496C115.337 275.719 115.879 276.088 116.26 276.604C116.646 277.119 116.84 277.749 116.84 278.493C116.84 279.642 116.465 280.553 115.715 281.227C114.965 281.901 113.989 282.238 112.788 282.238C111.587 282.238 110.608 281.912 109.852 281.262C109.102 280.612 108.727 279.753 108.727 278.687H110.362C110.362 279.361 110.582 279.9 111.021 280.304C111.461 280.708 112.05 280.91 112.788 280.91C113.573 280.91 114.174 280.705 114.59 280.295C115.006 279.885 115.214 279.296 115.214 278.529C115.214 277.784 114.985 277.213 114.528 276.815C114.071 276.416 113.412 276.211 112.551 276.199H111.329V274.872ZM121.436 274.872H122.658C123.426 274.861 124.029 274.658 124.469 274.266C124.908 273.873 125.128 273.343 125.128 272.675C125.128 271.175 124.381 270.425 122.887 270.425C122.183 270.425 121.621 270.627 121.199 271.031C120.783 271.43 120.575 271.96 120.575 272.622H118.949C118.949 271.609 119.318 270.768 120.057 270.1C120.801 269.426 121.744 269.089 122.887 269.089C124.094 269.089 125.04 269.408 125.725 270.047C126.411 270.686 126.754 271.573 126.754 272.71C126.754 273.267 126.572 273.806 126.209 274.327C125.851 274.849 125.362 275.238 124.741 275.496C125.444 275.719 125.986 276.088 126.367 276.604C126.754 277.119 126.947 277.749 126.947 278.493C126.947 279.642 126.572 280.553 125.822 281.227C125.072 281.901 124.097 282.238 122.895 282.238C121.694 282.238 120.716 281.912 119.96 281.262C119.21 280.612 118.835 279.753 118.835 278.687H120.47C120.47 279.361 120.689 279.9 121.129 280.304C121.568 280.708 122.157 280.91 122.895 280.91C123.681 280.91 124.281 280.705 124.697 280.295C125.113 279.885 125.321 279.296 125.321 278.529C125.321 277.784 125.093 277.213 124.636 276.815C124.179 276.416 123.519 276.211 122.658 276.199H121.436V274.872Z" fill="white"/>
<path d="M160.588 227.959H161.81C162.577 227.947 163.181 227.745 163.62 227.352C164.06 226.96 164.28 226.429 164.28 225.761C164.28 224.261 163.533 223.511 162.038 223.511C161.335 223.511 160.773 223.714 160.351 224.118C159.935 224.516 159.727 225.047 159.727 225.709H158.101C158.101 224.695 158.47 223.854 159.208 223.186C159.952 222.512 160.896 222.175 162.038 222.175C163.245 222.175 164.192 222.495 164.877 223.133C165.563 223.772 165.906 224.66 165.906 225.797C165.906 226.353 165.724 226.892 165.361 227.414C165.003 227.935 164.514 228.325 163.893 228.583C164.596 228.805 165.138 229.175 165.519 229.69C165.906 230.206 166.099 230.836 166.099 231.58C166.099 232.728 165.724 233.639 164.974 234.313C164.224 234.987 163.248 235.324 162.047 235.324C160.846 235.324 159.868 234.999 159.112 234.348C158.362 233.698 157.987 232.84 157.987 231.773H159.621C159.621 232.447 159.841 232.986 160.281 233.39C160.72 233.795 161.309 233.997 162.047 233.997C162.832 233.997 163.433 233.792 163.849 233.382C164.265 232.971 164.473 232.383 164.473 231.615C164.473 230.871 164.244 230.3 163.787 229.901C163.33 229.503 162.671 229.298 161.81 229.286H160.588V227.959ZM175.196 230.85H176.971V232.177H175.196V235.148H173.561V232.177H167.734V231.219L173.464 222.351H175.196V230.85ZM169.579 230.85H173.561V224.575L173.368 224.926L169.579 230.85Z" fill="white"/>
<path d="M160.588 178.699H161.81C162.577 178.688 163.181 178.486 163.62 178.093C164.06 177.7 164.28 177.17 164.28 176.502C164.28 175.002 163.533 174.252 162.038 174.252C161.335 174.252 160.773 174.454 160.351 174.859C159.935 175.257 159.727 175.787 159.727 176.449H158.101C158.101 175.436 158.47 174.595 159.208 173.927C159.952 173.253 160.896 172.916 162.038 172.916C163.245 172.916 164.192 173.236 164.877 173.874C165.563 174.513 165.906 175.401 165.906 176.537C165.906 177.094 165.724 177.633 165.361 178.155C165.003 178.676 164.514 179.066 163.893 179.323C164.596 179.546 165.138 179.915 165.519 180.431C165.906 180.947 166.099 181.576 166.099 182.321C166.099 183.469 165.724 184.38 164.974 185.054C164.224 185.728 163.248 186.065 162.047 186.065C160.846 186.065 159.868 185.739 159.112 185.089C158.362 184.439 157.987 183.58 157.987 182.514H159.621C159.621 183.188 159.841 183.727 160.281 184.131C160.72 184.535 161.309 184.738 162.047 184.738C162.832 184.738 163.433 184.532 163.849 184.122C164.265 183.712 164.473 183.123 164.473 182.356C164.473 181.612 164.244 181.04 163.787 180.642C163.33 180.243 162.671 180.038 161.81 180.027H160.588V178.699ZM169.078 179.473L169.729 173.092H176.285V174.595H171.109L170.722 178.084C171.349 177.715 172.061 177.53 172.858 177.53C174.024 177.53 174.95 177.917 175.635 178.691C176.321 179.458 176.663 180.498 176.663 181.811C176.663 183.129 176.306 184.169 175.591 184.931C174.882 185.687 173.889 186.065 172.612 186.065C171.481 186.065 170.558 185.751 169.843 185.124C169.128 184.497 168.721 183.63 168.621 182.523H170.16C170.259 183.255 170.52 183.809 170.942 184.184C171.364 184.553 171.92 184.738 172.612 184.738C173.368 184.738 173.959 184.48 174.387 183.964C174.821 183.448 175.037 182.737 175.037 181.828C175.037 180.973 174.803 180.287 174.334 179.772C173.871 179.25 173.253 178.989 172.48 178.989C171.771 178.989 171.214 179.145 170.81 179.455L170.379 179.807L169.078 179.473Z" fill="white"/>
<path d="M63.3989 80.3333H55.0141V79.1644L59.4438 74.2425C60.1 73.4984 60.5512 72.8949 60.7973 72.432C61.0493 71.9632 61.1752 71.4798 61.1752 70.9818C61.1752 70.3138 60.9731 69.7659 60.5688 69.3382C60.1645 68.9105 59.6254 68.6966 58.9516 68.6966C58.143 68.6966 57.5131 68.9281 57.062 69.3909C56.6166 69.848 56.394 70.4866 56.394 71.307H54.768C54.768 70.1292 55.1459 69.1771 55.9018 68.4505C56.6635 67.724 57.6801 67.3607 58.9516 67.3607C60.1411 67.3607 61.0815 67.6741 61.7729 68.3011C62.4643 68.9222 62.81 69.7513 62.81 70.7884C62.81 72.0482 62.0073 73.5482 60.4018 75.2884L56.9741 79.0062H63.3989V80.3333ZM71.353 74.7083C71.0131 75.1126 70.6059 75.4378 70.1313 75.6839C69.6625 75.93 69.1469 76.0531 68.5844 76.0531C67.8461 76.0531 67.2016 75.8714 66.6508 75.5081C66.1059 75.1449 65.684 74.6351 65.3852 73.9788C65.0864 73.3167 64.937 72.5872 64.937 71.7904C64.937 70.9349 65.0981 70.1644 65.4203 69.4788C65.7485 68.7933 66.2114 68.2689 66.809 67.9056C67.4067 67.5423 68.1039 67.3607 68.9008 67.3607C70.1664 67.3607 71.1625 67.8353 71.8891 68.7845C72.6215 69.7279 72.9877 71.0169 72.9877 72.6517V73.1263C72.9877 75.6165 72.4955 77.4359 71.5112 78.5843C70.5268 79.7269 69.0414 80.3128 67.0551 80.3421H66.7387V78.971H67.0815C68.4233 78.9476 69.4545 78.599 70.1752 77.9251C70.8959 77.2454 71.2885 76.1732 71.353 74.7083ZM68.8481 74.7083C69.393 74.7083 69.894 74.5413 70.351 74.2074C70.8139 73.8734 71.1508 73.4603 71.3618 72.9681V72.3177C71.3618 71.2513 71.1303 70.3841 70.6674 69.7161C70.2045 69.0482 69.6186 68.7142 68.9096 68.7142C68.1948 68.7142 67.6205 68.9896 67.187 69.5404C66.7534 70.0853 66.5366 70.806 66.5366 71.7025C66.5366 72.5755 66.7446 73.2962 67.1606 73.8646C67.5825 74.4271 68.145 74.7083 68.8481 74.7083Z" fill="white"/>
<path d="M63.3989 282.062H55.0141V280.893L59.4438 275.971C60.1 275.227 60.5512 274.623 60.7973 274.16C61.0493 273.692 61.1752 273.208 61.1752 272.71C61.1752 272.042 60.9731 271.494 60.5688 271.067C60.1645 270.639 59.6254 270.425 58.9516 270.425C58.143 270.425 57.5131 270.656 57.062 271.119C56.6166 271.576 56.394 272.215 56.394 273.035H54.768C54.768 271.858 55.1459 270.905 55.9018 270.179C56.6635 269.452 57.6801 269.089 58.9516 269.089C60.1411 269.089 61.0815 269.403 61.7729 270.03C62.4643 270.651 62.81 271.48 62.81 272.517C62.81 273.777 62.0073 275.277 60.4018 277.017L56.9741 280.735H63.3989V282.062ZM73.3832 270.179L68.0834 282.062H66.3784L71.6606 270.601H64.7348V269.265H73.3832V270.179Z" fill="white"/>
<path d="M114.308 328.975H112.674V318.138L109.395 319.342V317.866L114.054 316.117H114.308V328.975ZM119.819 322.559L120.47 316.178H127.026V317.681H121.849L121.463 321.171C122.09 320.801 122.802 320.617 123.599 320.617C124.765 320.617 125.69 321.004 126.376 321.777C127.061 322.545 127.404 323.585 127.404 324.897C127.404 326.216 127.047 327.256 126.332 328.017C125.623 328.773 124.63 329.151 123.352 329.151C122.222 329.151 121.299 328.838 120.584 328.211C119.869 327.584 119.462 326.717 119.362 325.609H120.9C121 326.342 121.261 326.895 121.682 327.27C122.104 327.639 122.661 327.824 123.352 327.824C124.108 327.824 124.7 327.566 125.128 327.051C125.561 326.535 125.778 325.823 125.778 324.915C125.778 324.059 125.544 323.374 125.075 322.858C124.612 322.337 123.994 322.076 123.221 322.076C122.512 322.076 121.955 322.231 121.551 322.542L121.12 322.893L119.819 322.559Z" fill="black"/>
<path d="M114.308 382.926H112.674V372.089L109.395 373.293V371.817L114.054 370.068H114.308V382.926ZM125.453 370.12V371.5H125.154C123.889 371.524 122.881 371.899 122.131 372.625C121.381 373.352 120.947 374.374 120.83 375.693C121.504 374.919 122.424 374.532 123.59 374.532C124.703 374.532 125.591 374.925 126.253 375.71C126.921 376.495 127.255 377.509 127.255 378.751C127.255 380.069 126.894 381.124 126.174 381.915C125.459 382.706 124.498 383.102 123.291 383.102C122.066 383.102 121.073 382.633 120.311 381.695C119.55 380.752 119.169 379.539 119.169 378.057V377.433C119.169 375.077 119.67 373.278 120.672 372.036C121.68 370.788 123.177 370.15 125.163 370.12H125.453ZM123.317 375.886C122.761 375.886 122.248 376.053 121.779 376.387C121.31 376.721 120.985 377.14 120.804 377.644V378.241C120.804 379.296 121.041 380.146 121.516 380.79C121.99 381.435 122.582 381.757 123.291 381.757C124.023 381.757 124.598 381.487 125.014 380.948C125.435 380.409 125.646 379.703 125.646 378.83C125.646 377.951 125.432 377.242 125.005 376.703C124.583 376.158 124.02 375.886 123.317 375.886Z" fill="white"/>
<path d="M362.95 382.926H361.316V372.089L358.037 373.293V371.817L362.696 370.068H362.95V382.926ZM375.976 371.043L370.676 382.926H368.971L374.253 371.465H367.327V370.129H375.976V371.043Z" fill="black"/>
<path d="M362.95 136.63H361.316V125.793L358.037 126.997V125.52L362.696 123.771H362.95V136.63ZM375.475 127.173C375.475 127.811 375.305 128.38 374.965 128.878C374.631 129.376 374.177 129.765 373.603 130.047C374.271 130.334 374.798 130.753 375.185 131.303C375.577 131.854 375.774 132.478 375.774 133.176C375.774 134.283 375.399 135.165 374.649 135.821C373.905 136.477 372.923 136.805 371.704 136.805C370.474 136.805 369.487 136.477 368.742 135.821C368.004 135.159 367.635 134.277 367.635 133.176C367.635 132.484 367.823 131.86 368.198 131.303C368.578 130.747 369.103 130.325 369.771 130.038C369.202 129.757 368.754 129.367 368.426 128.869C368.098 128.371 367.934 127.805 367.934 127.173C367.934 126.094 368.28 125.239 368.971 124.606C369.662 123.973 370.573 123.657 371.704 123.657C372.829 123.657 373.738 123.973 374.429 124.606C375.126 125.239 375.475 126.094 375.475 127.173ZM374.148 133.14C374.148 132.426 373.919 131.843 373.462 131.391C373.011 130.94 372.419 130.715 371.687 130.715C370.954 130.715 370.365 130.937 369.92 131.383C369.481 131.828 369.261 132.414 369.261 133.14C369.261 133.867 369.475 134.438 369.903 134.854C370.336 135.27 370.937 135.478 371.704 135.478C372.466 135.478 373.064 135.27 373.497 134.854C373.931 134.432 374.148 133.861 374.148 133.14ZM371.704 124.993C371.066 124.993 370.547 125.192 370.149 125.591C369.756 125.983 369.56 126.519 369.56 127.199C369.56 127.849 369.753 128.377 370.14 128.781C370.532 129.179 371.054 129.379 371.704 129.379C372.355 129.379 372.873 129.179 373.26 128.781C373.653 128.377 373.849 127.849 373.849 127.199C373.849 126.549 373.647 126.018 373.242 125.608C372.838 125.198 372.325 124.993 371.704 124.993Z" fill="white"/>
<path d="M238.629 136.63H236.995V125.793L233.716 126.997V125.52L238.375 123.771H238.629V136.63ZM249.625 131.005C249.285 131.409 248.878 131.734 248.403 131.98C247.934 132.226 247.419 132.349 246.856 132.349C246.118 132.349 245.473 132.168 244.922 131.804C244.378 131.441 243.956 130.931 243.657 130.275C243.358 129.613 243.209 128.884 243.209 128.087C243.209 127.231 243.37 126.461 243.692 125.775C244.02 125.09 244.483 124.565 245.081 124.202C245.678 123.839 246.376 123.657 247.172 123.657C248.438 123.657 249.434 124.132 250.161 125.081C250.893 126.024 251.259 127.313 251.259 128.948V129.423C251.259 131.913 250.767 133.732 249.783 134.881C248.798 136.023 247.313 136.609 245.327 136.638H245.01V135.267H245.353C246.695 135.244 247.726 134.895 248.447 134.221C249.168 133.542 249.56 132.469 249.625 131.005ZM247.12 131.005C247.665 131.005 248.166 130.838 248.623 130.504C249.086 130.17 249.422 129.757 249.633 129.264V128.614C249.633 127.548 249.402 126.68 248.939 126.012C248.476 125.344 247.89 125.01 247.181 125.01C246.466 125.01 245.892 125.286 245.459 125.837C245.025 126.382 244.808 127.102 244.808 127.999C244.808 128.872 245.016 129.593 245.432 130.161C245.854 130.723 246.417 131.005 247.12 131.005Z" fill="black"/>
<path d="M241.67 181.198H233.286V180.029L237.715 175.107C238.372 174.363 238.823 173.759 239.069 173.296C239.321 172.827 239.447 172.344 239.447 171.846C239.447 171.178 239.245 170.63 238.84 170.202C238.436 169.775 237.897 169.561 237.223 169.561C236.415 169.561 235.785 169.792 235.334 170.255C234.888 170.712 234.666 171.351 234.666 172.171H233.04C233.04 170.993 233.418 170.041 234.173 169.315C234.935 168.588 235.952 168.225 237.223 168.225C238.413 168.225 239.353 168.538 240.044 169.165C240.736 169.786 241.082 170.615 241.082 171.653C241.082 172.912 240.279 174.412 238.673 176.153L235.246 179.87H241.67V181.198ZM251.418 175.74C251.418 177.644 251.092 179.059 250.442 179.985C249.792 180.91 248.775 181.373 247.392 181.373C246.027 181.373 245.016 180.922 244.36 180.02C243.704 179.112 243.364 177.758 243.34 175.959V173.788C243.34 171.907 243.666 170.51 244.316 169.596C244.966 168.682 245.986 168.225 247.375 168.225C248.752 168.225 249.765 168.667 250.416 169.552C251.066 170.431 251.4 171.79 251.418 173.63V175.74ZM249.792 173.516C249.792 172.139 249.598 171.137 249.211 170.51C248.825 169.877 248.212 169.561 247.375 169.561C246.543 169.561 245.936 169.874 245.555 170.501C245.174 171.128 244.978 172.092 244.966 173.393V175.994C244.966 177.377 245.166 178.4 245.564 179.062C245.968 179.718 246.578 180.046 247.392 180.046C248.195 180.046 248.79 179.736 249.176 179.115C249.569 178.493 249.774 177.515 249.792 176.179V173.516Z" fill="black"/>
<path d="M314.387 185.889H306.002V184.72L310.431 179.798C311.088 179.054 311.539 178.45 311.785 177.988C312.037 177.519 312.163 177.035 312.163 176.537C312.163 175.869 311.961 175.322 311.556 174.894C311.152 174.466 310.613 174.252 309.939 174.252C309.131 174.252 308.501 174.484 308.05 174.947C307.604 175.404 307.382 176.042 307.382 176.863H305.756C305.756 175.685 306.134 174.733 306.889 174.006C307.651 173.28 308.668 172.916 309.939 172.916C311.129 172.916 312.069 173.23 312.761 173.857C313.452 174.478 313.798 175.307 313.798 176.344C313.798 177.604 312.995 179.104 311.389 180.844L307.962 184.562H314.387V185.889ZM324.494 185.889H316.109V184.72L320.539 179.798C321.195 179.054 321.646 178.45 321.892 177.988C322.144 177.519 322.27 177.035 322.27 176.537C322.27 175.869 322.068 175.322 321.664 174.894C321.26 174.466 320.72 174.252 320.047 174.252C319.238 174.252 318.608 174.484 318.157 174.947C317.712 175.404 317.489 176.042 317.489 176.863H315.863C315.863 175.685 316.241 174.733 316.997 174.006C317.759 173.28 318.775 172.916 320.047 172.916C321.236 172.916 322.177 173.23 322.868 173.857C323.559 174.478 323.905 175.307 323.905 176.344C323.905 177.604 323.102 179.104 321.497 180.844L318.069 184.562H324.494V185.889Z" fill="black"/>
<path d="M315.387 331.321H307.002V330.152L311.431 325.23C312.088 324.486 312.539 323.883 312.785 323.42C313.037 322.951 313.163 322.467 313.163 321.969C313.163 321.301 312.961 320.754 312.556 320.326C312.152 319.898 311.613 319.684 310.939 319.684C310.131 319.684 309.501 319.916 309.05 320.379C308.604 320.836 308.382 321.474 308.382 322.295H306.756C306.756 321.117 307.134 320.165 307.889 319.438C308.651 318.712 309.668 318.348 310.939 318.348C312.129 318.348 313.069 318.662 313.761 319.289C314.452 319.91 314.798 320.739 314.798 321.776C314.798 323.036 313.995 324.536 312.389 326.276L308.962 329.994H315.387V331.321ZM319.473 324.132H320.695C321.463 324.12 322.066 323.918 322.506 323.525C322.945 323.133 323.165 322.602 323.165 321.934C323.165 320.434 322.418 319.684 320.924 319.684C320.22 319.684 319.658 319.886 319.236 320.291C318.82 320.689 318.612 321.219 318.612 321.882H316.986C316.986 320.868 317.355 320.027 318.094 319.359C318.838 318.685 319.781 318.348 320.924 318.348C322.131 318.348 323.077 318.668 323.762 319.306C324.448 319.945 324.791 320.833 324.791 321.969C324.791 322.526 324.609 323.065 324.246 323.587C323.888 324.108 323.399 324.498 322.778 324.756C323.481 324.978 324.023 325.347 324.404 325.863C324.791 326.379 324.984 327.008 324.984 327.753C324.984 328.901 324.609 329.812 323.859 330.486C323.109 331.16 322.134 331.497 320.932 331.497C319.731 331.497 318.753 331.172 317.997 330.521C317.247 329.871 316.872 329.012 316.872 327.946H318.507C318.507 328.62 318.726 329.159 319.166 329.563C319.605 329.967 320.194 330.17 320.932 330.17C321.718 330.17 322.318 329.965 322.734 329.554C323.15 329.144 323.358 328.555 323.358 327.788C323.358 327.044 323.13 326.472 322.673 326.074C322.216 325.675 321.556 325.47 320.695 325.459H319.473V324.132Z" fill="black"/>
<path d="M166.609 331.321H158.224V330.152L162.654 325.23C163.31 324.486 163.761 323.883 164.007 323.42C164.259 322.951 164.385 322.467 164.385 321.969C164.385 321.301 164.183 320.754 163.779 320.326C163.374 319.898 162.835 319.684 162.161 319.684C161.353 319.684 160.723 319.916 160.272 320.379C159.827 320.836 159.604 321.474 159.604 322.295H157.978C157.978 321.117 158.356 320.165 159.112 319.438C159.873 318.712 160.89 318.348 162.161 318.348C163.351 318.348 164.291 318.662 164.983 319.289C165.674 319.91 166.02 320.739 166.02 321.776C166.02 323.036 165.217 324.536 163.612 326.276L160.184 329.994H166.609V331.321ZM175.196 327.023H176.971V328.35H175.196V331.321H173.561V328.35H167.734V327.392L173.464 318.524H175.196V327.023ZM169.579 327.023H173.561V320.748L173.368 321.099L169.579 327.023Z" fill="black"/>
<path d="M166.609 288.099H158.224V286.93L162.654 282.008C163.31 281.264 163.761 280.66 164.007 280.197C164.259 279.729 164.385 279.245 164.385 278.747C164.385 278.079 164.183 277.531 163.779 277.104C163.374 276.676 162.835 276.462 162.161 276.462C161.353 276.462 160.723 276.693 160.272 277.156C159.827 277.613 159.604 278.252 159.604 279.072H157.978C157.978 277.895 158.356 276.943 159.112 276.216C159.873 275.489 160.89 275.126 162.161 275.126C163.351 275.126 164.291 275.44 164.983 276.067C165.674 276.688 166.02 277.517 166.02 278.554C166.02 279.814 165.217 281.314 163.612 283.054L160.184 286.772H166.609V288.099ZM169.078 281.683L169.729 275.302H176.285V276.805H171.109L170.722 280.294C171.349 279.925 172.061 279.74 172.858 279.74C174.024 279.74 174.95 280.127 175.635 280.901C176.321 281.668 176.663 282.708 176.663 284.021C176.663 285.339 176.306 286.379 175.591 287.141C174.882 287.897 173.889 288.275 172.612 288.275C171.481 288.275 170.558 287.961 169.843 287.334C169.128 286.707 168.721 285.84 168.621 284.733H170.16C170.259 285.465 170.52 286.019 170.942 286.394C171.364 286.763 171.92 286.947 172.612 286.947C173.368 286.947 173.959 286.69 174.387 286.174C174.821 285.658 175.037 284.946 175.037 284.038C175.037 283.183 174.803 282.497 174.334 281.982C173.871 281.46 173.253 281.199 172.48 281.199C171.771 281.199 171.214 281.355 170.81 281.665L170.379 282.017L169.078 281.683Z" fill="white"/>
<path d="M473.269 21.617C473.269 22.2557 473.099 22.8241 472.759 23.3221C472.425 23.8202 471.971 24.2098 471.397 24.4911C472.065 24.7782 472.592 25.1971 472.979 25.7479C473.371 26.2987 473.568 26.9227 473.568 27.62C473.568 28.7274 473.193 29.6092 472.443 30.2655C471.698 30.9217 470.717 31.2498 469.498 31.2498C468.268 31.2498 467.28 30.9217 466.536 30.2655C465.798 29.6034 465.429 28.7215 465.429 27.62C465.429 26.9286 465.616 26.3045 465.991 25.7479C466.372 25.1913 466.897 24.7694 467.565 24.4823C466.996 24.201 466.548 23.8114 466.22 23.3133C465.892 22.8153 465.728 22.2498 465.728 21.617C465.728 20.5389 466.073 19.6834 466.765 19.0506C467.456 18.4178 468.367 18.1014 469.498 18.1014C470.623 18.1014 471.531 18.4178 472.223 19.0506C472.92 19.6834 473.269 20.5389 473.269 21.617ZM471.942 27.5848C471.942 26.87 471.713 26.287 471.256 25.8358C470.805 25.3846 470.213 25.159 469.481 25.159C468.748 25.159 468.159 25.3817 467.714 25.827C467.275 26.2723 467.055 26.8582 467.055 27.5848C467.055 28.3114 467.269 28.8827 467.696 29.2987C468.13 29.7147 468.731 29.9227 469.498 29.9227C470.26 29.9227 470.858 29.7147 471.291 29.2987C471.725 28.8768 471.942 28.3055 471.942 27.5848ZM469.498 19.4373C468.859 19.4373 468.341 19.6366 467.943 20.035C467.55 20.4276 467.354 20.9637 467.354 21.6434C467.354 22.2938 467.547 22.8211 467.934 23.2254C468.326 23.6239 468.848 23.8231 469.498 23.8231C470.149 23.8231 470.667 23.6239 471.054 23.2254C471.446 22.8211 471.643 22.2938 471.643 21.6434C471.643 20.993 471.441 20.4627 471.036 20.0526C470.632 19.6424 470.119 19.4373 469.498 19.4373Z" fill="black"/>
<path d="M194.949 25.4491C194.609 25.8534 194.202 26.1786 193.728 26.4247C193.259 26.6707 192.743 26.7938 192.181 26.7938C191.442 26.7938 190.798 26.6122 190.247 26.2489C189.702 25.8856 189.28 25.3758 188.981 24.7196C188.683 24.0575 188.533 23.328 188.533 22.5311C188.533 21.6756 188.694 20.9051 189.017 20.2196C189.345 19.534 189.808 19.0096 190.405 18.6463C191.003 18.2831 191.7 18.1014 192.497 18.1014C193.763 18.1014 194.759 18.576 195.485 19.5252C196.218 20.4686 196.584 21.7577 196.584 23.3924V23.867C196.584 26.3573 196.092 28.1766 195.107 29.325C194.123 30.4676 192.638 31.0536 190.651 31.0829H190.335V29.7118H190.678C192.02 29.6883 193.051 29.3397 193.772 28.6659C194.492 27.9862 194.885 26.9139 194.949 25.4491ZM192.444 25.4491C192.989 25.4491 193.49 25.2821 193.947 24.9481C194.41 24.6141 194.747 24.201 194.958 23.7088V23.0584C194.958 21.992 194.727 21.1248 194.264 20.4569C193.801 19.7889 193.215 19.4549 192.506 19.4549C191.791 19.4549 191.217 19.7303 190.783 20.2811C190.35 20.826 190.133 21.5467 190.133 22.4432C190.133 23.3163 190.341 24.037 190.757 24.6053C191.179 25.1678 191.741 25.4491 192.444 25.4491Z" fill="white"/>
<path d="M398.831 490.827H390.446V489.658L394.876 484.736C395.532 483.992 395.983 483.389 396.229 482.926C396.481 482.457 396.607 481.974 396.607 481.476C396.607 480.808 396.405 480.26 396.001 479.832C395.597 479.404 395.057 479.19 394.384 479.19C393.575 479.19 392.945 479.422 392.494 479.885C392.049 480.342 391.826 480.98 391.826 481.801H390.2C390.2 480.623 390.578 479.671 391.334 478.944C392.096 478.218 393.112 477.854 394.384 477.854C395.573 477.854 396.514 478.168 397.205 478.795C397.896 479.416 398.242 480.245 398.242 481.282C398.242 482.542 397.439 484.042 395.834 485.782L392.406 489.5H398.831V490.827Z" fill="black"/>
<path d="M395.79 561.198H394.155V550.361L390.877 551.565V550.088L395.535 548.339H395.79V561.198Z" fill="white"/>
<path d="M581.576 383.395H578.834V391H577.715V383.395H574.978V382.469H581.576V383.395ZM584.717 391.117C583.857 391.117 583.158 390.836 582.619 390.273C582.08 389.707 581.81 388.951 581.81 388.006V387.807C581.81 387.178 581.93 386.617 582.168 386.125C582.41 385.629 582.746 385.242 583.176 384.965C583.609 384.684 584.078 384.543 584.582 384.543C585.406 384.543 586.047 384.814 586.504 385.357C586.961 385.9 587.189 386.678 587.189 387.689V388.141H582.894C582.91 388.766 583.092 389.271 583.439 389.658C583.791 390.041 584.236 390.232 584.775 390.232C585.158 390.232 585.482 390.154 585.748 389.998C586.014 389.842 586.246 389.635 586.445 389.377L587.107 389.893C586.576 390.709 585.779 391.117 584.717 391.117ZM584.582 385.434C584.144 385.434 583.777 385.594 583.48 385.914C583.184 386.23 583 386.676 582.93 387.25H586.105V387.168C586.074 386.617 585.926 386.191 585.66 385.891C585.394 385.586 585.035 385.434 584.582 385.434ZM589.627 391H588.543V382H589.627V391ZM593.998 391.117C593.139 391.117 592.439 390.836 591.9 390.273C591.361 389.707 591.092 388.951 591.092 388.006V387.807C591.092 387.178 591.211 386.617 591.449 386.125C591.691 385.629 592.027 385.242 592.457 384.965C592.891 384.684 593.359 384.543 593.863 384.543C594.687 384.543 595.328 384.814 595.785 385.357C596.242 385.9 596.471 386.678 596.471 387.689V388.141H592.176C592.191 388.766 592.373 389.271 592.721 389.658C593.072 390.041 593.518 390.232 594.057 390.232C594.439 390.232 594.764 390.154 595.029 389.998C595.295 389.842 595.527 389.635 595.727 389.377L596.389 389.893C595.857 390.709 595.06 391.117 593.998 391.117ZM593.863 385.434C593.426 385.434 593.059 385.594 592.762 385.914C592.465 386.23 592.281 386.676 592.211 387.25H595.387V387.168C595.355 386.617 595.207 386.191 594.941 385.891C594.676 385.586 594.316 385.434 593.863 385.434ZM599.201 383.125V384.66H600.385V385.498H599.201V389.43C599.201 389.684 599.254 389.875 599.359 390.004C599.465 390.129 599.644 390.191 599.898 390.191C600.023 390.191 600.195 390.168 600.414 390.121V391C600.129 391.078 599.852 391.117 599.582 391.117C599.098 391.117 598.732 390.971 598.486 390.678C598.24 390.385 598.117 389.969 598.117 389.43V385.498H596.963V384.66H598.117V383.125H599.201ZM604.721 385.633C604.557 385.605 604.379 385.592 604.187 385.592C603.477 385.592 602.994 385.895 602.74 386.5V391H601.656V384.66H602.711L602.728 385.393C603.084 384.826 603.588 384.543 604.24 384.543C604.451 384.543 604.611 384.57 604.721 384.625V385.633ZM609.402 391C609.34 390.875 609.289 390.652 609.25 390.332C608.746 390.855 608.144 391.117 607.445 391.117C606.82 391.117 606.307 390.941 605.904 390.59C605.506 390.234 605.307 389.785 605.307 389.242C605.307 388.582 605.557 388.07 606.057 387.707C606.56 387.34 607.268 387.156 608.178 387.156H609.232V386.658C609.232 386.279 609.119 385.979 608.893 385.756C608.666 385.529 608.332 385.416 607.891 385.416C607.504 385.416 607.18 385.514 606.918 385.709C606.656 385.904 606.525 386.141 606.525 386.418H605.435C605.435 386.102 605.547 385.797 605.769 385.504C605.996 385.207 606.301 384.973 606.684 384.801C607.07 384.629 607.494 384.543 607.955 384.543C608.685 384.543 609.258 384.727 609.672 385.094C610.086 385.457 610.301 385.959 610.316 386.6V389.518C610.316 390.1 610.391 390.562 610.539 390.906V391H609.402ZM607.603 390.174C607.943 390.174 608.266 390.086 608.57 389.91C608.875 389.734 609.096 389.506 609.232 389.225V387.924H608.383C607.055 387.924 606.391 388.312 606.391 389.09C606.391 389.43 606.504 389.695 606.73 389.887C606.957 390.078 607.248 390.174 607.603 390.174ZM613.041 384.66L613.076 385.457C613.56 384.848 614.193 384.543 614.975 384.543C616.314 384.543 616.99 385.299 617.002 386.811V391H615.918V386.805C615.914 386.348 615.809 386.01 615.602 385.791C615.398 385.572 615.08 385.463 614.646 385.463C614.295 385.463 613.986 385.557 613.721 385.744C613.455 385.932 613.248 386.178 613.1 386.482V391H612.016V384.66H613.041ZM622.328 389.318C622.328 389.025 622.217 388.799 621.994 388.639C621.775 388.475 621.391 388.334 620.84 388.217C620.293 388.1 619.857 387.959 619.533 387.795C619.213 387.631 618.975 387.436 618.818 387.209C618.666 386.982 618.59 386.713 618.59 386.4C618.59 385.881 618.809 385.441 619.246 385.082C619.687 384.723 620.25 384.543 620.934 384.543C621.652 384.543 622.234 384.729 622.68 385.1C623.129 385.471 623.353 385.945 623.353 386.523H622.264C622.264 386.227 622.137 385.971 621.883 385.756C621.633 385.541 621.316 385.434 620.934 385.434C620.539 385.434 620.23 385.52 620.008 385.691C619.785 385.863 619.674 386.088 619.674 386.365C619.674 386.627 619.777 386.824 619.984 386.957C620.191 387.09 620.564 387.217 621.103 387.338C621.646 387.459 622.086 387.604 622.422 387.771C622.758 387.939 623.006 388.143 623.166 388.381C623.33 388.615 623.412 388.902 623.412 389.242C623.412 389.809 623.185 390.264 622.732 390.607C622.279 390.947 621.691 391.117 620.969 391.117C620.461 391.117 620.012 391.027 619.621 390.848C619.23 390.668 618.924 390.418 618.701 390.098C618.482 389.773 618.373 389.424 618.373 389.049H619.457C619.477 389.412 619.621 389.701 619.891 389.916C620.164 390.127 620.523 390.232 620.969 390.232C621.379 390.232 621.707 390.15 621.953 389.986C622.203 389.818 622.328 389.596 622.328 389.318ZM630.18 387.9C630.18 388.865 629.959 389.643 629.518 390.232C629.076 390.822 628.478 391.117 627.725 391.117C626.955 391.117 626.35 390.873 625.908 390.385V393.438H624.824V384.66H625.814L625.867 385.363C626.309 384.816 626.922 384.543 627.707 384.543C628.469 384.543 629.07 384.83 629.512 385.404C629.957 385.979 630.18 386.777 630.18 387.801V387.9ZM629.096 387.777C629.096 387.062 628.943 386.498 628.639 386.084C628.334 385.67 627.916 385.463 627.385 385.463C626.728 385.463 626.236 385.754 625.908 386.336V389.365C626.232 389.943 626.728 390.232 627.396 390.232C627.916 390.232 628.328 390.027 628.633 389.617C628.941 389.203 629.096 388.59 629.096 387.777ZM631.275 387.771C631.275 387.15 631.396 386.592 631.639 386.096C631.885 385.6 632.225 385.217 632.658 384.947C633.096 384.678 633.594 384.543 634.152 384.543C635.016 384.543 635.713 384.842 636.244 385.439C636.779 386.037 637.047 386.832 637.047 387.824V387.9C637.047 388.518 636.928 389.072 636.689 389.564C636.455 390.053 636.117 390.434 635.676 390.707C635.238 390.98 634.734 391.117 634.164 391.117C633.305 391.117 632.607 390.818 632.072 390.221C631.541 389.623 631.275 388.832 631.275 387.848V387.771ZM632.365 387.9C632.365 388.604 632.527 389.168 632.852 389.594C633.18 390.02 633.617 390.232 634.164 390.232C634.715 390.232 635.152 390.018 635.477 389.588C635.801 389.154 635.963 388.549 635.963 387.771C635.963 387.076 635.797 386.514 635.465 386.084C635.137 385.65 634.699 385.434 634.152 385.434C633.617 385.434 633.185 385.646 632.857 386.072C632.529 386.498 632.365 387.107 632.365 387.9ZM641.471 385.633C641.307 385.605 641.129 385.592 640.937 385.592C640.227 385.592 639.744 385.895 639.49 386.5V391H638.406V384.66H639.461L639.478 385.393C639.834 384.826 640.338 384.543 640.99 384.543C641.201 384.543 641.361 384.57 641.471 384.625V385.633ZM644.236 383.125V384.66H645.42V385.498H644.236V389.43C644.236 389.684 644.289 389.875 644.394 390.004C644.5 390.129 644.68 390.191 644.934 390.191C645.059 390.191 645.23 390.168 645.449 390.121V391C645.164 391.078 644.887 391.117 644.617 391.117C644.133 391.117 643.768 390.971 643.521 390.678C643.275 390.385 643.152 389.969 643.152 389.43V385.498H641.998V384.66H643.152V383.125H644.236ZM649.322 391.117C648.463 391.117 647.764 390.836 647.225 390.273C646.685 389.707 646.416 388.951 646.416 388.006V387.807C646.416 387.178 646.535 386.617 646.773 386.125C647.016 385.629 647.352 385.242 647.781 384.965C648.215 384.684 648.684 384.543 649.187 384.543C650.012 384.543 650.652 384.814 651.109 385.357C651.566 385.9 651.795 386.678 651.795 387.689V388.141H647.5C647.516 388.766 647.697 389.271 648.045 389.658C648.396 390.041 648.842 390.232 649.381 390.232C649.764 390.232 650.088 390.154 650.353 389.998C650.619 389.842 650.852 389.635 651.051 389.377L651.713 389.893C651.182 390.709 650.385 391.117 649.322 391.117ZM649.187 385.434C648.75 385.434 648.383 385.594 648.086 385.914C647.789 386.23 647.605 386.676 647.535 387.25H650.711V387.168C650.68 386.617 650.531 386.191 650.266 385.891C650 385.586 649.641 385.434 649.187 385.434ZM656.746 389.318C656.746 389.025 656.635 388.799 656.412 388.639C656.193 388.475 655.809 388.334 655.258 388.217C654.711 388.1 654.275 387.959 653.951 387.795C653.631 387.631 653.393 387.436 653.236 387.209C653.084 386.982 653.008 386.713 653.008 386.4C653.008 385.881 653.227 385.441 653.664 385.082C654.105 384.723 654.668 384.543 655.352 384.543C656.07 384.543 656.652 384.729 657.098 385.1C657.547 385.471 657.771 385.945 657.771 386.523H656.682C656.682 386.227 656.555 385.971 656.301 385.756C656.051 385.541 655.734 385.434 655.352 385.434C654.957 385.434 654.648 385.52 654.426 385.691C654.203 385.863 654.092 386.088 654.092 386.365C654.092 386.627 654.195 386.824 654.402 386.957C654.609 387.09 654.982 387.217 655.521 387.338C656.064 387.459 656.504 387.604 656.84 387.771C657.176 387.939 657.424 388.143 657.584 388.381C657.748 388.615 657.83 388.902 657.83 389.242C657.83 389.809 657.603 390.264 657.15 390.607C656.697 390.947 656.109 391.117 655.387 391.117C654.879 391.117 654.43 391.027 654.039 390.848C653.648 390.668 653.342 390.418 653.119 390.098C652.9 389.773 652.791 389.424 652.791 389.049H653.875C653.894 389.412 654.039 389.701 654.309 389.916C654.582 390.127 654.941 390.232 655.387 390.232C655.797 390.232 656.125 390.15 656.371 389.986C656.621 389.818 656.746 389.596 656.746 389.318ZM659.207 390.432C659.207 390.244 659.262 390.088 659.371 389.963C659.484 389.838 659.652 389.775 659.875 389.775C660.098 389.775 660.266 389.838 660.379 389.963C660.496 390.088 660.555 390.244 660.555 390.432C660.555 390.611 660.496 390.762 660.379 390.883C660.266 391.004 660.098 391.064 659.875 391.064C659.652 391.064 659.484 391.004 659.371 390.883C659.262 390.762 659.207 390.611 659.207 390.432ZM659.213 385.258C659.213 385.07 659.268 384.914 659.377 384.789C659.49 384.664 659.658 384.602 659.881 384.602C660.103 384.602 660.271 384.664 660.385 384.789C660.502 384.914 660.56 385.07 660.56 385.258C660.56 385.438 660.502 385.588 660.385 385.709C660.271 385.83 660.103 385.891 659.881 385.891C659.658 385.891 659.49 385.83 659.377 385.709C659.268 385.588 659.213 385.438 659.213 385.258ZM594.437 401.25C594.211 401.52 593.939 401.736 593.623 401.9C593.31 402.064 592.967 402.146 592.592 402.146C592.1 402.146 591.67 402.025 591.303 401.783C590.939 401.541 590.658 401.201 590.459 400.764C590.26 400.322 590.16 399.836 590.16 399.305C590.16 398.734 590.268 398.221 590.482 397.764C590.701 397.307 591.01 396.957 591.408 396.715C591.807 396.473 592.271 396.352 592.803 396.352C593.646 396.352 594.31 396.668 594.795 397.301C595.283 397.93 595.527 398.789 595.527 399.879V400.195C595.527 401.855 595.199 403.068 594.543 403.834C593.887 404.596 592.896 404.986 591.572 405.006H591.361V404.092H591.59C592.484 404.076 593.172 403.844 593.652 403.395C594.133 402.941 594.394 402.227 594.437 401.25ZM592.768 401.25C593.131 401.25 593.465 401.139 593.769 400.916C594.078 400.693 594.303 400.418 594.443 400.09V399.656C594.443 398.945 594.289 398.367 593.98 397.922C593.672 397.477 593.281 397.254 592.809 397.254C592.332 397.254 591.949 397.438 591.66 397.805C591.371 398.168 591.227 398.648 591.227 399.246C591.227 399.828 591.365 400.309 591.643 400.688C591.924 401.062 592.299 401.25 592.768 401.25ZM608.318 401.818H605.459V400.934H608.318V401.818ZM613.82 400.207H614.635C615.146 400.199 615.549 400.064 615.842 399.803C616.135 399.541 616.281 399.188 616.281 398.742C616.281 397.742 615.783 397.242 614.787 397.242C614.318 397.242 613.943 397.377 613.662 397.646C613.385 397.912 613.246 398.266 613.246 398.707H612.162C612.162 398.031 612.408 397.471 612.9 397.025C613.396 396.576 614.025 396.352 614.787 396.352C615.592 396.352 616.223 396.564 616.68 396.99C617.137 397.416 617.365 398.008 617.365 398.766C617.365 399.137 617.244 399.496 617.002 399.844C616.764 400.191 616.437 400.451 616.023 400.623C616.492 400.771 616.853 401.018 617.107 401.361C617.365 401.705 617.494 402.125 617.494 402.621C617.494 403.387 617.244 403.994 616.744 404.443C616.244 404.893 615.594 405.117 614.793 405.117C613.992 405.117 613.34 404.9 612.836 404.467C612.336 404.033 612.086 403.461 612.086 402.75H613.176C613.176 403.199 613.322 403.559 613.615 403.828C613.908 404.098 614.301 404.232 614.793 404.232C615.316 404.232 615.717 404.096 615.994 403.822C616.271 403.549 616.41 403.156 616.41 402.645C616.41 402.148 616.258 401.768 615.953 401.502C615.648 401.236 615.209 401.1 614.635 401.092H613.82V400.207ZM622.545 405H621.455V397.775L619.269 398.578V397.594L622.375 396.428H622.545V405ZM595.873 419H590.283V418.221L593.236 414.939C593.674 414.443 593.975 414.041 594.139 413.732C594.307 413.42 594.391 413.098 594.391 412.766C594.391 412.32 594.256 411.955 593.986 411.67C593.717 411.385 593.357 411.242 592.908 411.242C592.369 411.242 591.949 411.396 591.648 411.705C591.352 412.01 591.203 412.436 591.203 412.982H590.119C590.119 412.197 590.371 411.562 590.875 411.078C591.383 410.594 592.06 410.352 592.908 410.352C593.701 410.352 594.328 410.561 594.789 410.979C595.25 411.393 595.48 411.945 595.48 412.637C595.48 413.477 594.945 414.477 593.875 415.637L591.59 418.115H595.873V419ZM602.529 411.078L598.996 419H597.859L601.381 411.359H596.764V410.469H602.529V411.078ZM609.103 415.818H606.244V414.934H609.103V415.818ZM616.592 419H615.502V411.775L613.316 412.578V411.594L616.422 410.428H616.592V419ZM624.021 410.463V411.383H623.822C622.978 411.398 622.307 411.648 621.807 412.133C621.307 412.617 621.018 413.299 620.939 414.178C621.389 413.662 622.002 413.404 622.779 413.404C623.521 413.404 624.113 413.666 624.555 414.189C625 414.713 625.223 415.389 625.223 416.217C625.223 417.096 624.982 417.799 624.502 418.326C624.025 418.854 623.385 419.117 622.58 419.117C621.764 419.117 621.102 418.805 620.594 418.18C620.086 417.551 619.832 416.742 619.832 415.754V415.338C619.832 413.768 620.166 412.568 620.834 411.74C621.506 410.908 622.504 410.482 623.828 410.463H624.021ZM622.598 414.307C622.227 414.307 621.885 414.418 621.572 414.641C621.26 414.863 621.043 415.143 620.922 415.479V415.877C620.922 416.58 621.08 417.146 621.396 417.576C621.713 418.006 622.107 418.221 622.58 418.221C623.068 418.221 623.451 418.041 623.728 417.682C624.01 417.322 624.15 416.852 624.15 416.27C624.15 415.684 624.008 415.211 623.723 414.852C623.441 414.488 623.066 414.307 622.598 414.307Z" fill="#939292"/>
<circle cx="246.296" cy="253.333" r="28.1481" fill="#F9D51A"/>
<path d="M245.281 261.951H235.535V260.017L240.134 255.115C240.766 254.425 241.231 253.822 241.531 253.308C241.837 252.794 241.99 252.305 241.99 251.843C241.99 251.212 241.83 250.717 241.511 250.359C241.192 249.994 240.737 249.812 240.144 249.812C239.506 249.812 239.001 250.033 238.63 250.476C238.266 250.912 238.084 251.488 238.084 252.205H235.251C235.251 251.339 235.457 250.548 235.867 249.831C236.283 249.115 236.869 248.555 237.625 248.152C238.38 247.742 239.236 247.537 240.193 247.537C241.658 247.537 242.794 247.888 243.601 248.591C244.415 249.294 244.822 250.287 244.822 251.57C244.822 252.273 244.64 252.989 244.275 253.718C243.91 254.447 243.285 255.297 242.4 256.267L239.168 259.675H245.281V261.951ZM253.875 261.951H251.052V251.072L247.683 252.117V249.822L253.572 247.712H253.875V261.951Z" fill="#1C1919"/>
<line x1="204" y1="213" x2="281.407" y2="213" stroke="#21D61D" stroke-width="2"/>
<line x1="192.346" y1="327.395" x2="293.21" y2="327.395" stroke="#F9D51A" stroke-width="2"/>
<line x1="317.667" y1="201.727" x2="317.802" y2="302.591" stroke="#F9D51A" stroke-width="2"/>
<line x1="265.058" y1="177.39" x2="293.205" y2="177.272" stroke="#F9D51A" stroke-width="2"/>
<line x1="167.543" y1="197.037" x2="167.543" y2="206.42" stroke="#F9D51A" stroke-width="2"/>
<path d="M117.284 246.296L117.284 255.679" stroke="#F9851A" stroke-width="2"/>
<path d="M65.679 248.642L65.679 255.679" stroke="#F91A1A" stroke-width="2"/>
<path d="M117.284 147.778L117.284 208.765" stroke="#F9851A" stroke-width="2"/>
<path d="M138.395 126.667H168.889" stroke="#F9851A" stroke-width="2"/>
<path d="M119.63 340.123V356.543" stroke="#F9851A" stroke-width="2"/>
<path d="M138.395 375.309H349.506" stroke="#F9851A" stroke-width="2"/>
<path d="M370.617 356.543L370.617 147.778" stroke="#F9851A" stroke-width="2"/>
<path d="M262.716 126.667L347.161 126.667" stroke="#F9851A" stroke-width="2"/>
<path d="M168.889 77.4074L401.111 77.4074" stroke="#F91A1A" stroke-width="2"/>
<path d="M213.457 23.4568L445.679 23.4568" stroke="#19D2EB" stroke-width="2"/>
<path d="M469.136 46.9136V459.753" stroke="#19D2EB" stroke-width="2"/>
<path d="M415.185 480.864L445.679 480.864" stroke="#19D2EB" stroke-width="2"/>
<path d="M46.9136 480.864L375.309 480.864" stroke="#19D2EB" stroke-width="2"/>
<path d="M16.4198 459.753L16.4198 250.988" stroke="#19D2EB" stroke-width="2"/>
<path d="M16.4198 46.9136L16.4198 208.765" stroke="#19D2EB" stroke-width="2"/>
<path d="M37.5309 25.8025L117.284 25.8025" stroke="#19D2EB" stroke-width="2"/>
<path d="M422.222 100.864V405.802" stroke="#F91A1A" stroke-width="2"/>
<path d="M89.1358 429.259H396.42" stroke="#F91A1A" stroke-width="2"/>
<path d="M65.679 408.148V347.161" stroke="#F91A1A" stroke-width="2"/>
<path d="M63.3333 206.42L63.3333 145.432" stroke="#F91A1A" stroke-width="2"/>
<path d="M65.679 107.901L65.679 91.4815" stroke="#F91A1A" stroke-width="2"/>
<line x1="169.889" y1="300.247" x2="169.889" y2="304.938" stroke="#F9D51A" stroke-width="2"/>
<line x1="282" y1="212" x2="282" y2="296" stroke="#21D61D" stroke-width="2"/>
<line x1="204" y1="295" x2="281.407" y2="295" stroke="#21D61D" stroke-width="2"/>
<line x1="35.1852" y1="228.877" x2="46.9136" y2="228.877" stroke="#AAAAAA" stroke-width="2"/>
<line x1="84.4445" y1="125.667" x2="100.864" y2="125.667" stroke="#AAAAAA" stroke-width="2"/>
<line x1="395.074" y1="506.667" x2="395.074" y2="530.123" stroke="#AAAAAA" stroke-width="2"/>
<line x1="84.4445" y1="320.358" x2="100.864" y2="320.358" stroke="#AAAAAA" stroke-width="2"/>
<line x1="136.049" y1="226.531" x2="147.778" y2="226.531" stroke="#AAAAAA" stroke-width="2"/>
<line x1="187.18" y1="280.601" x2="217.674" y2="264.181" stroke="#AAAAAA" stroke-width="2"/>
<line x1="185.759" y1="226.638" x2="214.45" y2="241.107" stroke="#AAAAAA" stroke-width="2"/>
<line x1="242.605" y1="147.778" x2="242.605" y2="154.815" stroke="#AAAAAA" stroke-width="2"/>
<line x1="139.395" y1="44.5679" x2="139.395" y2="58.642" stroke="#AAAAAA" stroke-width="2"/>
</svg>
